<svg xmlns="http://www.w3.org/2000/svg" xmlns:xlink="http://www.w3.org/1999/xlink" viewBox="0 0 75.8 70">
  <defs>
    <linearGradient id="linear-gradient" x1="1.35" y1="35.02" x2="74.06" y2="35.02" gradientUnits="userSpaceOnUse">
      <stop offset="0" stop-color="#f4cf34"/>
      <stop offset="1" stop-color="#ffce00"/>
    </linearGradient>
  </defs>
  <title>Fichier 4</title>
  <g style="isolation: isolate">
    <g>
      <g>
        <path d="M54.5,17.2C51.6,12.1,46.7,3.8,42.9,1.1A5.4,5.4,0,0,0,39.7,0C34.6,0,29.4,6.9,23.2,17.2h0c-8.5,0-19.2,1-22.3,5.6A5.3,5.3,0,0,0,.5,28C2.1,31.9,6.3,37.3,13,44.1c-1.9,6-5.3,18.6-1.8,23.6A5.5,5.5,0,0,0,15.7,70h.6c6-.6,15.8-5.5,21.6-8.6,5.8,3.1,15.6,8,21.6,8.6h.6a5.5,5.5,0,0,0,4.5-2.3c3.5-5,.1-17.6-1.8-23.6C69.5,37.3,73.7,31.9,75.3,28a5.3,5.3,0,0,0-.4-5.2C72,18.5,62.4,17.4,54.5,17.2Zm18,9.6c-1.5,3.6-5.8,9-12.6,15.7l-.7.7.3.9c2.7,8,5,18.5,2.6,21.8a2.4,2.4,0,0,1-2,1.1h-.3c-5.9-.5-16.8-6.2-21.2-8.7l-.7-.4-.7.4c-4.4,2.5-15.3,8.2-21.2,8.7a2.3,2.3,0,0,1-2.3-1c-2.4-3.3-.1-13.8,2.6-21.8l.3-.9-.7-.7C9.1,35.8,4.8,30.4,3.3,26.8a2.4,2.4,0,0,1,.2-2.3c1.7-2.6,9.3-4.2,19.7-4.2H25l.4-.7c2.7-4.5,9.8-16.5,14.3-16.5a2.5,2.5,0,0,1,1.4.4c2.5,1.9,6.6,7.7,11.1,16l.4.8h.9c10,.1,17.2,1.7,18.8,4.2A2.4,2.4,0,0,1,72.5,26.8Z" style="fill: #d39e2d"/>
        <g>
          <g>
            <g>
              <path d="M72.5,26.9c2.2-5.4-11.4-6.8-19.9-6.8C50.6,16.4,44.8,6.2,41,3.4S29.1,12.6,24.7,20.1C16.5,19.9.5,21,2.9,26.9s9,12.2,13.2,16.4c-2.5,7.3-6.9,24.5-.2,23.9s17.5-6.7,21.8-9.1c4.3,2.4,15.7,8.5,21.9,9.1s2.3-16.6-.3-23.9C63.5,39.1,70.5,31.8,72.5,26.9Z" style="fill: #eec700"/>
              <path d="M59.9,68.5h-.5c-6-.6-16.7-6.2-21.7-8.9-5,2.7-15.7,8.3-21.7,8.9h-.5a3.7,3.7,0,0,1-3.2-1.7C8.8,62,13.4,47.3,14.6,43.6,9.7,38.7,3.6,32.1,1.7,27.4A3.7,3.7,0,0,1,2,23.6c2.9-4.4,15.7-4.8,21-4.8h.9C29.3,9.7,34.8,1.5,39.5,1.5a4,4,0,0,1,2.3.8c3.8,2.8,9.1,12,11.6,16.5,5.6,0,17.2.7,20,4.8a3.7,3.7,0,0,1,.3,3.8c-1.9,4.7-7.9,11.3-12.9,16.2C62,47.3,66.6,62,63.1,66.8A3.7,3.7,0,0,1,59.9,68.5Zm-22.2-12,.7.4c3.4,2,15.3,8.4,21.3,8.9h.2a1.2,1.2,0,0,0,1.1-.5c1.9-2.7-.1-13.3-3-21.6l-.3-.8.6-.6c4-3.9,11-11.2,12.9-15.9a1.2,1.2,0,0,0,0-1.3c-1.4-2.1-9.1-3.6-18.6-3.7h-.8l-.4-.7C49.7,17.6,43.9,7.1,40.2,4.5a.9.9,0,0,0-.7-.3c-2.6,0-7.2,5.6-13.7,16.6l-.4.7H23c-9.6,0-17.3,1.6-18.8,3.7a1.2,1.2,0,0,0,0,1.3c1.9,4.7,8.9,12,12.9,15.9l.6.6-.3.8c-2.9,8.3-4.9,18.9-3,21.6a1.3,1.3,0,0,0,1.3.5c6-.5,17.9-6.9,21.4-8.9Z" style="fill: url(#linear-gradient)"/>
            </g>
            <path d="M72.5,26.9c2.2-5.4-11.4-6.8-19.9-6.8C50.6,16.4,44.8,6.2,41,3.4S29.1,12.6,24.7,20.1C16.5,19.9.5,21,2.9,26.9s9,12.2,13.2,16.4c-2.5,7.3-6.9,24.5-.2,23.9s17.5-6.7,21.8-9.1c4.3,2.4,15.7,8.5,21.9,9.1s2.3-16.6-.3-23.9C63.5,39.1,70.5,31.8,72.5,26.9Z" style="fill: #f4cf34"/>
            <g>
              <path d="M66.9,28.2c1.9-4.6-9.6-5.7-16.7-5.7-1.7-3.1-6.5-11.7-9.7-14s-10,7.7-13.7,14c-6.9-.1-20.3.8-18.3,5.7s7.6,10.3,11.1,13.7c-2.2,6.2-5.8,20.6-.2,20.1s14.7-5.6,18.3-7.6c3.6,2,13.2,7.1,18.3,7.6s2-13.9-.2-20.1C59.3,38.5,65.2,32.3,66.9,28.2Z" style="fill: #fff;opacity: 0.55;mix-blend-mode: overlay"/>
              <path d="M50.2,22.5c-1.7-3.1-6.5-11.7-9.7-14s-10,7.7-13.7,14c-6.9-.1-20.3.8-18.3,5.7s7.6,10.3,11.1,13.7c-.5,1.6-1.2,3.7-1.7,5.9,6.5.9,15.6-1.5,22.2-4,11.1-4.1,14.8-5,26.4-14.9a1.6,1.6,0,0,0,.4-.7C68.8,23.6,57.3,22.5,50.2,22.5Z" style="fill: #fff;opacity: 0.49;mix-blend-mode: overlay"/>
              <path d="M17.5,22.8c-3.6.7-8.2,2-8.5,3.6s9.1-.1,10.8-1.7S21.1,22.2,17.5,22.8Z" style="fill: #fff"/>
              <path d="M39.2,8.1c-1.7-.1-5.9,3.9-9,8.8s6.4-5.2,9-5A1.9,1.9,0,1,0,39.2,8.1Z" style="fill: #fff"/>
              <path d="M27.1,23.6c0,.7-1,1.2-2.2,1.2s-2.1-.5-2.1-1.2.9-1.2,2.1-1.2S27.1,22.9,27.1,23.6Z" style="fill: #fff"/>
              <path d="M63,24.3C58.1,23,51.8,21.8,50.6,23S61.4,25.5,65,27.1,67.8,25.6,63,24.3Z" style="fill: #fff"/>
            </g>
            <g style="mix-blend-mode: multiply">
              <path d="M59.3,39.6c.3.8.6,1.7.9,2.8,4.2-4.3,10.4-11,12.3-15.5a2.8,2.8,0,0,0-.4-2.8C69.7,28.9,63.2,35.7,59.3,39.6Z" style="fill: #ffce00"/>
              <path d="M16.1,39.6C12.2,35.7,5.7,28.9,3.3,24.1a2.8,2.8,0,0,0-.4,2.8C4.8,31.4,11,38.1,15.2,42.4,15.5,41.3,15.8,40.4,16.1,39.6Z" style="fill: #ffce00"/>
            </g>
            <path d="M23.4,59.8c.4-.1,9.6-4,12.1-5.7s2.6-1.4,9.8,2.9,10.8,4.8,12.1,3.7.5,1.8-3,1-14.9-5.9-15.8-6.6-12.3,6.4-17.8,6.7S19.3,61.5,23.4,59.8Z" style="fill: #fff"/>
          </g>
          <path d="M41.4,4S41,8.3,40.1,7.9a2,2,0,0,0-2.1.2L37.2,4S39.5,1.8,41.4,4Z" style="fill: #fff"/>
          <path d="M4.3,23.6a14.2,14.2,0,0,1,3.4,1.3l1.2.9a2.6,2.6,0,0,0-.7,1.6c0,.9.1,1,.1,1s-5.1-.5-5.6-2.1A2.3,2.3,0,0,1,4.3,23.6Z" style="fill: #fff"/>
          <path d="M70.8,23.3a11.9,11.9,0,0,0-2.4,1.2c-1.1.7-1.3,1.3-1.3,1.3a7.5,7.5,0,0,1,.2,1.1v.8a20,20,0,0,0,4.3-.8,1.8,1.8,0,0,0,.7-2.4C72.1,24.1,71.1,23.2,70.8,23.3Z" style="fill: #f4cf34"/>
          <path d="M18.1,61.9s-1.5,4.7-1.9,5a2.1,2.1,0,0,1-2.7-.6c-.7-1.2-1-2-.7-2.6s4.1-2.9,4.1-2.9S17.4,61.9,18.1,61.9Z" style="fill: #fff;opacity: 0.49;mix-blend-mode: overlay"/>
          <path d="M57.1,61.9s1.4,4.7,1.8,5a2.3,2.3,0,0,0,2.8-.6c.6-1.2.9-2,.6-2.6s-4-2.9-4-2.9S57.8,61.9,57.1,61.9Z" style="fill: #fff;opacity: 0.49;mix-blend-mode: overlay"/>
          <path d="M38.1,55.1v3s-17.2,8.6-19.3,9l-2.2.4,2.2-4.6S36.1,56.7,38.1,55.1Z" style="fill: #ffce00;mix-blend-mode: multiply"/>
          <path d="M26.8,22.5l-2.1-2.4S30.1,10,34.1,6.4s6.1-4.4,6-1.5-.9,3.2-.9,3.2S34.7,8.4,26.8,22.5Z" style="fill: #fff;opacity: 0.7000000000000001;mix-blend-mode: overlay"/>
        </g>
      </g>
    </g>
  </g>
</svg>
