<?xml version="1.0" standalone="no"?>
<!DOCTYPE svg PUBLIC "-//W3C//DTD SVG 20010904//EN"
 "http://www.w3.org/TR/2001/REC-SVG-20010904/DTD/svg10.dtd">
<svg version="1.0" xmlns="http://www.w3.org/2000/svg"
 width="260.000000pt" height="260.000000pt" viewBox="0 0 260.000000 260.000000"
 preserveAspectRatio="xMidYMid meet">
<metadata>
Created by potrace 1.11, written by Peter Selinger 2001-2013
</metadata>
<g transform="translate(0.000000,260.000000) scale(0.100000,-0.100000)"
fill="#000000" stroke="none">
<path d="M1155 2205 c-185 -28 -353 -111 -500 -246 l-41 -37 -69 14 c-122 26
-147 29 -265 29 -134 0 -187 -15 -241 -71 -32 -34 -34 -38 -34 -107 1 -82 21
-130 98 -232 41 -54 152 -170 234 -242 28 -25 32 -36 38 -98 29 -336 244 -637
550 -772 170 -74 400 -98 565 -58 14 3 36 8 50 11 39 8 170 63 217 90 31 18
48 22 60 15 24 -12 285 -77 348 -86 326 -46 487 51 419 252 -36 106 -169 267
-332 401 l-44 36 7 60 c7 65 7 217 1 252 -3 12 -7 38 -10 59 -18 110 -91 272
-169 374 -145 189 -334 303 -591 357 -51 11 -218 10 -291 -1z m-647 -419 c1
-2 -14 -34 -33 -72 -20 -38 -47 -106 -61 -151 -16 -51 -30 -80 -37 -77 -37 16
-137 180 -137 224 0 59 74 90 200 82 36 -2 66 -5 68 -6z m1823 -1042 c36 -73
35 -109 -4 -138 -25 -18 -42 -21 -130 -21 -56 0 -118 3 -137 7 -19 3 -54 9
-77 13 -24 4 -43 10 -43 12 0 2 16 21 35 41 48 49 138 185 165 247 l22 50 69
-75 c39 -41 83 -102 100 -136z"/>
</g>
</svg>
