<svg xmlns="http://www.w3.org/2000/svg" xmlns:xlink="http://www.w3.org/1999/xlink" viewBox="0 0 500 500">
  <defs>
    <style>
      .cls-1 {
        fill: none;
      }

      .cls-2 {
        isolation: isolate;
      }

      .cls-3 {
        fill: url(#Dégradé_sans_nom_649);
      }

      .cls-4 {
        fill: #121921;
      }

      .cls-17, .cls-5 {
        fill: #fff;
      }

      .cls-6 {
        fill: url(#Dégradé_sans_nom_623);
      }

      .cls-7 {
        fill: url(#Dégradé_sans_nom_623-2);
      }

      .cls-15, .cls-20, .cls-8 {
        fill: #45f4ca;
      }

      .cls-14, .cls-9 {
        fill: #2fb196;
      }

      .cls-10 {
        fill: url(#Dégradé_sans_nom_623-3);
      }

      .cls-11 {
        fill: url(#Dégradé_sans_nom_623-4);
      }

      .cls-12 {
        fill: #ff5d24;
      }

      .cls-13, .cls-16 {
        fill: #38ceaa;
      }

      .cls-14, .cls-15, .cls-16 {
        fill-rule: evenodd;
      }

      .cls-17 {
        fill-opacity: 0.4;
      }

      .cls-18 {
        clip-path: url(#clip-path);
      }

      .cls-19 {
        fill: url(#Dégradé_sans_nom_237);
      }

      .cls-20 {
        opacity: 0.6;
      }

      .cls-21 {
        opacity: 0.5;
        mix-blend-mode: lighten;
        fill: url(#Dégradé_sans_nom_644);
      }

      .cls-22 {
        clip-path: url(#clip-path-2);
      }

      .cls-23 {
        fill: #212369;
      }

      .cls-24 {
        fill: #202266;
      }

      .cls-25 {
        fill: #1f2163;
      }

      .cls-26 {
        fill: #1e2060;
      }

      .cls-27 {
        fill: #1d1f5d;
      }

      .cls-28 {
        fill: #1d1e5b;
      }

      .cls-29 {
        fill: #1c1d58;
      }

      .cls-30 {
        fill: #1b1c55;
      }

      .cls-31 {
        fill: #252878;
      }

      .cls-32 {
        fill: #23256f;
      }

      .cls-33 {
        fill: #1e205f;
      }

      .cls-34 {
        clip-path: url(#clip-path-3);
      }

      .cls-35 {
        fill: #18194c;
      }

      .cls-36 {
        clip-path: url(#clip-path-4);
      }

      .cls-37 {
        fill: #242876;
      }

      .cls-38 {
        fill: #232672;
      }

      .cls-39 {
        clip-path: url(#clip-path-5);
      }

      .cls-40 {
        fill: #252775;
      }

      .cls-41 {
        fill: #242672;
      }

      .cls-42 {
        fill: #22246c;
      }

      .cls-43 {
        clip-path: url(#clip-path-6);
      }

      .cls-44 {
        fill: #2b2f8c;
      }

      .cls-45 {
        clip-path: url(#clip-path-7);
      }

      .cls-46 {
        clip-path: url(#clip-path-8);
      }

      .cls-47 {
        clip-path: url(#clip-path-9);
      }

      .cls-48 {
        fill: #c5c5db;
      }

      .cls-49 {
        fill: url(#Dégradé_sans_nom_622);
      }

      .cls-50 {
        fill: url(#Dégradé_sans_nom_622-2);
      }

      .cls-51 {
        fill: #9e9e9e;
      }

      .cls-52 {
        fill: url(#Dégradé_sans_nom_622-3);
      }

      .cls-53 {
        fill: #1d2935;
      }

      .cls-54 {
        fill: #283a49;
      }

      .cls-55 {
        fill: #85f9db;
      }

      .cls-56 {
        fill: #66e2c1;
      }
    </style>
    <linearGradient id="Dégradé_sans_nom_649" data-name="Dégradé sans nom 649" y1="413.39" x2="500" y2="413.39" gradientUnits="userSpaceOnUse">
      <stop offset="0" stop-color="#121921"/>
      <stop offset="0.51" stop-color="#45f4ca"/>
      <stop offset="0.56" stop-color="#44efc6"/>
      <stop offset="0.61" stop-color="#41e1bb"/>
      <stop offset="0.67" stop-color="#3bc9a9"/>
      <stop offset="0.74" stop-color="#33a88f"/>
      <stop offset="0.8" stop-color="#297d6e"/>
      <stop offset="0.87" stop-color="#1d4a47"/>
      <stop offset="0.93" stop-color="#121921"/>
    </linearGradient>
    <linearGradient id="Dégradé_sans_nom_623" data-name="Dégradé sans nom 623" x1="219.6" y1="203.1" x2="442.85" y2="203.1" gradientUnits="userSpaceOnUse">
      <stop offset="0" stop-color="#121921"/>
      <stop offset="0.02" stop-color="#142329"/>
      <stop offset="0.11" stop-color="#20544e"/>
      <stop offset="0.22" stop-color="#2a7f6f"/>
      <stop offset="0.32" stop-color="#32a38b"/>
      <stop offset="0.43" stop-color="#39c0a2"/>
      <stop offset="0.55" stop-color="#3ed7b4"/>
      <stop offset="0.67" stop-color="#42e7c0"/>
      <stop offset="0.81" stop-color="#44f1c8"/>
      <stop offset="1" stop-color="#45f4ca"/>
    </linearGradient>
    <linearGradient id="Dégradé_sans_nom_623-2" x1="229.94" y1="151.66" x2="441.59" y2="151.66" xlink:href="#Dégradé_sans_nom_623"/>
    <linearGradient id="Dégradé_sans_nom_623-3" x1="67.23" y1="331.32" x2="397.31" y2="331.32" xlink:href="#Dégradé_sans_nom_623"/>
    <linearGradient id="Dégradé_sans_nom_623-4" x1="67.52" y1="347.51" x2="278.31" y2="347.51" xlink:href="#Dégradé_sans_nom_623"/>
    <clipPath id="clip-path">
      <path class="cls-1" d="M338.1,287.6l21-85.8-79.3-47L183,190.7l74.3,97s61.3,34.9,60.9,35.9,44.5-26.5,44.5-26.5Z"/>
    </clipPath>
    <radialGradient id="Dégradé_sans_nom_237" data-name="Dégradé sans nom 237" cx="306.22" cy="254.12" r="46.4" gradientUnits="userSpaceOnUse">
      <stop offset="0" stop-color="#2fb196" stop-opacity="0.8"/>
      <stop offset="0.05" stop-color="#42b8a0" stop-opacity="0.82"/>
      <stop offset="0.2" stop-color="#7bcebc" stop-opacity="0.87"/>
      <stop offset="0.35" stop-color="#aadfd4" stop-opacity="0.92"/>
      <stop offset="0.49" stop-color="#cfede7" stop-opacity="0.95"/>
      <stop offset="0.62" stop-color="#e9f7f4" stop-opacity="0.98"/>
      <stop offset="0.74" stop-color="#f9fdfc" stop-opacity="0.99"/>
      <stop offset="0.82" stop-color="#fff"/>
    </radialGradient>
    <linearGradient id="Dégradé_sans_nom_644" data-name="Dégradé sans nom 644" x1="-3750.72" y1="2873.83" x2="-3750.72" y2="2520.61" gradientTransform="translate(-2514.5 -3473.8) rotate(-90)" gradientUnits="userSpaceOnUse">
      <stop offset="0" stop-color="#121921"/>
      <stop offset="0.06" stop-color="#183a3a"/>
      <stop offset="0.2" stop-color="#247a6c"/>
      <stop offset="0.29" stop-color="#2ca28a"/>
      <stop offset="0.35" stop-color="#2fb196"/>
      <stop offset="0.41" stop-color="#5cc2ad" stop-opacity="0.87"/>
      <stop offset="0.55" stop-color="#a3ddd1" stop-opacity="0.66"/>
      <stop offset="0.69" stop-color="#d7f0eb" stop-opacity="0.52"/>
      <stop offset="0.84" stop-color="#f5fbfa" stop-opacity="0.43"/>
      <stop offset="1" stop-color="#fff" stop-opacity="0.4"/>
    </linearGradient>
    <clipPath id="clip-path-2">
      <path class="cls-1" d="M389.9,292.4l2-1.2a10.9,10.9,0,0,1-1.4-3.1l-2,1.2A12.3,12.3,0,0,0,389.9,292.4Z"/>
    </clipPath>
    <clipPath id="clip-path-3">
      <path class="cls-1" d="M391.6,256.4l-2,1.1a2.5,2.5,0,0,0-1.1,1.5l2-1.2A3.1,3.1,0,0,1,391.6,256.4Z"/>
    </clipPath>
    <clipPath id="clip-path-4">
      <path class="cls-1" d="M391.6,256.4l-2,1.1h.3l2-1.1Z"/>
    </clipPath>
    <clipPath id="clip-path-5">
      <path class="cls-1" d="M412.5,291.8a1.5,1.5,0,0,1-.8-.8l-2,1.2a3,3,0,0,0,.8.8l1.5-.9Z"/>
    </clipPath>
    <clipPath id="clip-path-6">
      <path class="cls-1" d="M413.3,291.9a.8.8,0,0,1-.8-.1h-.2l-1.1.7h-.1l-.3.2-.3.2a.8.8,0,0,0,.8.1Z"/>
    </clipPath>
    <clipPath id="clip-path-7">
      <path class="cls-1" d="M433.6,314.8l-2,1.2h-.1l2-1.1Z"/>
    </clipPath>
    <clipPath id="clip-path-8">
      <path class="cls-1" d="M433.6,314.8h0l-2,1.2h0Z"/>
    </clipPath>
    <clipPath id="clip-path-9">
      <path class="cls-1" d="M433.6,314.8a2.5,2.5,0,0,0,1.1-1.5l-2,1.2a2.5,2.5,0,0,1-1.1,1.5Z"/>
    </clipPath>
    <linearGradient id="Dégradé_sans_nom_622" data-name="Dégradé sans nom 622" x1="397.33" y1="254.15" x2="443.02" y2="309.33" gradientUnits="userSpaceOnUse">
      <stop offset="0" stop-color="#45f4ca"/>
      <stop offset="0.11" stop-color="#44efc6"/>
      <stop offset="0.25" stop-color="#41e1bb"/>
      <stop offset="0.39" stop-color="#3bc9a9"/>
      <stop offset="0.55" stop-color="#33a88f"/>
      <stop offset="0.71" stop-color="#297d6e"/>
      <stop offset="0.87" stop-color="#1d4a47"/>
      <stop offset="1" stop-color="#121921"/>
    </linearGradient>
    <linearGradient id="Dégradé_sans_nom_622-2" x1="261.64" y1="376.24" x2="290.67" y2="329.18" xlink:href="#Dégradé_sans_nom_622"/>
    <linearGradient id="Dégradé_sans_nom_622-3" x1="252.63" y1="372.02" x2="243.92" y2="385.46" xlink:href="#Dégradé_sans_nom_622"/>
  </defs>
  <title>etape-3-svg</title>
  <g class="cls-2">
    <g id="socle">
      <g>
        <polygon class="cls-3" points="500 326.8 500 355.7 250 500 0 355.7 0 326.8 500 326.8"/>
        <polygon class="cls-4" points="250 471.1 0 326.8 250 182.4 500 326.8 250 471.1"/>
        <polygon class="cls-5" points="250 467.7 2.9 325.1 0 326.8 250 471.1 500 326.8 497.1 325.1 250 467.7"/>
      </g>
    </g>
    <g id="computer">
      <g>
        <path class="cls-6" d="M435.9,175.3,256.4,71.6a6.9,6.9,0,0,0-6-.7H250l-6.5,2.5,5.8,2.9c0,.1-.1.2-.1.3L220,209.8c-1.5,6.6,1.4,14.4,6.5,17.3L401.7,328.3l-.6,7.4,7.1-2.8c2.3-1.1,4.2-3.6,5-7.2l29.3-133.1C443.9,186,441,178.2,435.9,175.3Z"/>
        <path class="cls-7" d="M435.9,175.3,256.4,71.6a6.9,6.9,0,0,0-6-.7H250l-6.5,2.5,5.8,2.9c0,.1-.1.2-.1.3l-19.3,87.7,87.9,68.4,123.8-50.4A13.7,13.7,0,0,0,435.9,175.3Z"/>
        <path class="cls-8" d="M429.2,195.7l13.6-5.8c.3-5.3-1.9-10.8-5.5-13.7l-21.6,9.1Z"/>
        <path class="cls-9" d="M394.8,335,215.3,231.3c-5-2.9-8-10.7-6.5-17.3L238,80.9c1.5-6.7,6.8-9.7,11.9-6.8L429.4,177.8c5,2.9,8,10.7,6.5,17.3L406.7,328.2C405.2,334.9,399.9,337.9,394.8,335Z"/>
        <path class="cls-5" d="M431.1,177.1,251.6,73.5a7.2,7.2,0,0,0-7.1-.3,7.6,7.6,0,0,1,5.4.9L429.4,177.8c5,2.9,8,10.7,6.5,17.3L406.7,328.2c-.8,3.5-2.6,5.9-4.8,7.1,3-.7,5.6-3.4,6.5-7.7l29.2-133.1C439.1,187.9,436.2,180.1,431.1,177.1Z"/>
        <path class="cls-5" d="M390.9,325.1,222.1,227.7c-4.6-2.7-7.3-9.8-6-15.9L242.9,90c1.3-6.1,6.2-8.9,10.8-6.2l168.8,97.4c4.7,2.7,7.4,9.8,6,15.9L401.8,318.9C400.4,325,395.6,327.8,390.9,325.1Z"/>
        <path class="cls-4" d="M390.9,325.1,222.1,227.7c-4.6-2.7-7.3-9.8-6-15.9L242.9,90c1.3-6.1,6.2-8.9,10.8-6.2l168.8,97.4c4.7,2.7,7.4,9.8,6,15.9L401.8,318.9C400.4,325,395.6,327.8,390.9,325.1Z"/>
        <path class="cls-8" d="M392.4,324.5,223.6,227.1c-4.6-2.7-7.3-9.8-6-15.9L244.4,89.4a9,9,0,0,1,4.2-6.4c-2.7.7-4.9,3.2-5.7,7L216.1,211.8c-1.3,6.1,1.4,13.2,6,15.9l168.8,97.4a6.5,6.5,0,0,0,6.6.2A6.8,6.8,0,0,1,392.4,324.5Z"/>
        <path class="cls-10" d="M397.3,335.6l-24.5-3.3L214.4,240.9c-5.1-2.9-14-2.6-19.8.8L82.4,306.5l-13-2a11.6,11.6,0,0,0-1.9,3.6,10.6,10.6,0,0,0,0,4.8h0c-.1,2,1,3.9,3.4,5.2L250.4,421.8c5.1,2.9,14,2.5,19.8-.9l122.3-70.5c3.3-1.9,4.9-4.4,4.8-6.7Z"/>
        <path class="cls-11" d="M278.3,277.8l-11.2-6.5H143.3L82.4,306.5l-13-2-1.9,8.4h0c-.1,2,1,3.9,3.4,5.2L250.4,421.8a19.8,19.8,0,0,0,10.3,1.9Z"/>
        <path class="cls-4" d="M74.1,305.4l-4.7-.9-1.9,8.4h0c-.1,2,1,3.9,3.4,5.2l3.2,1.9Z"/>
        <path class="cls-8" d="M252.2,422.6c4.9,1.8,11.7,1.4,16.9-1V402.8H252.2Z"/>
        <path class="cls-9" d="M250.4,417.3,70.9,313.7c-5-3-4.4-8.1,1.5-11.5l122.2-70.5c5.8-3.4,14.7-3.8,19.8-.8L393.9,334.5c5.1,2.9,4.4,8-1.4,11.4L270.2,416.5C264.4,419.8,255.5,420.2,250.4,417.3Z"/>
        <g>
          <path class="cls-4" d="M147.3,279.3l-8.1-4.6c-.7-.4-.6-1.1.1-1.5l9.6-5.5a3,3,0,0,1,2.6-.2l8.1,4.7c.6.4.6,1.1-.2,1.5l-9.6,5.5A2.5,2.5,0,0,1,147.3,279.3Z"/>
          <path class="cls-4" d="M159.8,286.6l-8.1-4.7c-.7-.4-.6-1,.2-1.5l9.6-5.5a2.8,2.8,0,0,1,2.5-.1l8.1,4.7c.7.4.6,1-.1,1.4l-9.6,5.6A3,3,0,0,1,159.8,286.6Z"/>
          <path class="cls-4" d="M172.4,293.8l-8.2-4.7c-.6-.3-.5-1,.2-1.4l9.6-5.6a3.4,3.4,0,0,1,2.6-.1l8.1,4.7c.6.4.5,1.1-.2,1.5l-9.6,5.5A2.5,2.5,0,0,1,172.4,293.8Z"/>
          <path class="cls-4" d="M189.7,287.8l-8.1-4.6c-.7-.4-.6-1.1.2-1.5l8-4.7a3.4,3.4,0,0,1,2.6-.1l8.1,4.7c.6.4.6,1.1-.2,1.5l-8,4.6A2.7,2.7,0,0,1,189.7,287.8Z"/>
          <path class="cls-4" d="M202.3,295.1l-8.2-4.7c-.6-.4-.5-1,.2-1.5l8.1-4.6a2.8,2.8,0,0,1,2.5-.1l8.1,4.7c.7.3.6,1-.2,1.4l-8,4.7A2.8,2.8,0,0,1,202.3,295.1Z"/>
          <path class="cls-4" d="M214.8,302.3l-8.1-4.7c-.7-.3-.6-1,.2-1.4l8-4.7a2.8,2.8,0,0,1,2.5-.1l8.2,4.7c.6.4.5,1-.2,1.5l-8.1,4.6A2.5,2.5,0,0,1,214.8,302.3Z"/>
          <path class="cls-4" d="M227.3,309.6l-8.1-4.7c-.6-.4-.6-1.1.2-1.5l8-4.6a2.7,2.7,0,0,1,2.6-.1l8.1,4.7c.7.3.6,1-.2,1.4l-8,4.7A3.4,3.4,0,0,1,227.3,309.6Z"/>
          <path class="cls-4" d="M239.9,316.8l-8.1-4.7c-.7-.4-.6-1,.1-1.4L240,306a2.8,2.8,0,0,1,2.5-.1l8.2,4.7c.6.4.5,1-.2,1.5l-8.1,4.6A2.8,2.8,0,0,1,239.9,316.8Z"/>
          <path class="cls-4" d="M252.4,324.1l-8.1-4.7c-.7-.4-.6-1.1.2-1.5l8-4.7a3.4,3.4,0,0,1,2.6-.1l8.1,4.7c.6.4.6,1.1-.2,1.5l-8,4.6A3,3,0,0,1,252.4,324.1Z"/>
          <path class="cls-4" d="M265,331.3l-8.2-4.7c-.6-.4-.5-1,.2-1.5l8.1-4.6a2.8,2.8,0,0,1,2.5-.1l8.1,4.7c.7.4.6,1-.1,1.4l-8.1,4.7A2.8,2.8,0,0,1,265,331.3Z"/>
          <path class="cls-4" d="M277.5,338.5l-8.1-4.7c-.7-.3-.6-1,.2-1.4l8-4.7a3.4,3.4,0,0,1,2.6-.1l8.1,4.7c.6.4.5,1-.2,1.5l-8.1,4.6A2.5,2.5,0,0,1,277.5,338.5Z"/>
          <path class="cls-4" d="M290,345.8l-8.1-4.7c-.6-.4-.5-1,.2-1.5l8.1-4.6a2.5,2.5,0,0,1,2.5-.1l8.1,4.7c.7.3.6,1-.2,1.4l-8,4.7A3,3,0,0,1,290,345.8Z"/>
          <path class="cls-4" d="M302.6,353l-8.1-4.7c-.7-.3-.6-1,.1-1.4l8.1-4.7a2.8,2.8,0,0,1,2.5-.1l8.2,4.7c.6.4.5,1-.2,1.5l-8.1,4.6A2.8,2.8,0,0,1,302.6,353Z"/>
          <path class="cls-4" d="M208.2,284.4l-8.1-4.7c-.7-.3-.6-1,.2-1.4l8-4.7a2.8,2.8,0,0,1,2.5-.1l8.2,4.7c.6.4.5,1-.2,1.5l-8.1,4.6A2.8,2.8,0,0,1,208.2,284.4Z"/>
          <path class="cls-4" d="M195.5,277.1l-8.2-4.7c-.6-.4-.5-1.1.2-1.5l8.1-4.6a2.5,2.5,0,0,1,2.5-.1l8.1,4.7c.7.3.6,1-.1,1.4L198,277A3.1,3.1,0,0,1,195.5,277.1Z"/>
          <path class="cls-4" d="M182.7,269.7l-17.5-10.1c-.6-.4-.6-1,.2-1.5l8-4.6a3,3,0,0,1,2.6-.1l17.5,10.1c.6.4.6,1-.2,1.5l-8,4.6A3,3,0,0,1,182.7,269.7Z"/>
          <path class="cls-4" d="M191.6,260.8l-14.2-8.2c-.6-.4-.5-1.1.2-1.5l8.1-4.7a3.1,3.1,0,0,1,2.5-.1l14.2,8.2c.6.4.6,1.1-.2,1.5l-8,4.7A3.4,3.4,0,0,1,191.6,260.8Z"/>
          <path class="cls-4" d="M220.7,291.7l-8.1-4.7c-.6-.4-.6-1.1.2-1.5l8-4.6a2.7,2.7,0,0,1,2.6-.1l8.1,4.6c.7.4.6,1.1-.2,1.5l-8,4.7A3.4,3.4,0,0,1,220.7,291.7Z"/>
          <path class="cls-4" d="M233.3,298.9l-8.1-4.7c-.7-.4-.6-1,.1-1.5l8.1-4.6a2.8,2.8,0,0,1,2.5-.1l8.1,4.7c.7.4.6,1-.1,1.5l-8.1,4.6A2.8,2.8,0,0,1,233.3,298.9Z"/>
          <path class="cls-4" d="M245.8,306.1l-8.1-4.6c-.7-.4-.6-1.1.2-1.5l8-4.7a3.4,3.4,0,0,1,2.6-.1l8.1,4.7c.6.4.6,1.1-.2,1.5l-8,4.6A2.7,2.7,0,0,1,245.8,306.1Z"/>
          <path class="cls-4" d="M258.4,313.4l-8.2-4.7c-.6-.4-.5-1,.2-1.5l8.1-4.6a2.5,2.5,0,0,1,2.5-.1l8.1,4.7c.7.3.6,1-.2,1.4l-8,4.7A2.8,2.8,0,0,1,258.4,313.4Z"/>
          <path class="cls-4" d="M270.9,320.6l-8.1-4.7c-.7-.3-.6-1,.2-1.4l8-4.7a3,3,0,0,1,2.6-.1l8.1,4.7c.6.4.5,1-.2,1.5l-8.1,4.6A2.5,2.5,0,0,1,270.9,320.6Z"/>
          <path class="cls-4" d="M283.4,327.9l-8.1-4.7c-.6-.4-.6-1.1.2-1.5l8-4.6a2.7,2.7,0,0,1,2.6-.1l8.1,4.6c.7.4.6,1.1-.2,1.5l-8,4.7A3.4,3.4,0,0,1,283.4,327.9Z"/>
          <path class="cls-4" d="M296,335.1l-8.1-4.7c-.7-.4-.6-1,.1-1.5l8.1-4.6a2.8,2.8,0,0,1,2.5-.1l8.2,4.7c.6.4.5,1-.2,1.5l-8.1,4.6A2.8,2.8,0,0,1,296,335.1Z"/>
          <path class="cls-4" d="M308.5,342.3l-8.1-4.6c-.7-.4-.6-1.1.2-1.5l8-4.7a3.4,3.4,0,0,1,2.6-.1l8.1,4.7c.6.4.6,1.1-.2,1.5l-8,4.6A2.7,2.7,0,0,1,308.5,342.3Z"/>
          <path class="cls-4" d="M321.1,349.6l-8.2-4.7c-.6-.4-.5-1,.2-1.5l8.1-4.6a2.8,2.8,0,0,1,2.5-.1l8.1,4.7c.7.3.6,1-.1,1.4l-8.1,4.7A2.8,2.8,0,0,1,321.1,349.6Z"/>
          <path class="cls-4" d="M343.4,362.5l-17.8-10.3c-.6-.3-.5-1,.2-1.4l8.1-4.7a2.8,2.8,0,0,1,2.5-.1l17.7,10.2c.7.4.6,1.1-.1,1.5l-8.1,4.7A3.1,3.1,0,0,1,343.4,362.5Z"/>
          <path class="cls-4" d="M367.8,348.4l-15-8.7c-.6-.3-.5-1,.2-1.4l8.1-4.7a2.8,2.8,0,0,1,2.5-.1l15,8.6c.6.4.5,1.1-.2,1.5l-8.1,4.7A3.1,3.1,0,0,1,367.8,348.4Z"/>
          <path class="cls-4" d="M242.7,290.2l-8.1-4.6c-.7-.4-.6-1.1.2-1.5l8-4.7a3.1,3.1,0,0,1,2.5-.1l8.2,4.7c.6.4.5,1.1-.2,1.5l-8.1,4.6A2.5,2.5,0,0,1,242.7,290.2Z"/>
          <path class="cls-4" d="M229.8,282.8l-8.1-4.7c-.6-.3-.6-1,.2-1.4l8-4.7a3,3,0,0,1,2.6-.1l8.1,4.7c.7.4.6,1-.2,1.5l-8,4.6A2.7,2.7,0,0,1,229.8,282.8Z"/>
          <path class="cls-4" d="M217,275.4l-8.1-4.7c-.7-.4-.6-1,.1-1.5l8.1-4.6a2.8,2.8,0,0,1,2.5-.1l8.2,4.7c.6.4.5,1-.2,1.5l-8.1,4.6A2.8,2.8,0,0,1,217,275.4Z"/>
          <path class="cls-4" d="M204.1,268l-8.1-4.7c-.6-.4-.6-1,.2-1.5l8-4.6a2.7,2.7,0,0,1,2.6-.1l8.1,4.7c.7.3.6,1-.2,1.4l-8,4.7A3,3,0,0,1,204.1,268Z"/>
          <path class="cls-4" d="M255.2,297.5l-8.1-4.7c-.6-.4-.6-1,.2-1.5l8-4.6a2.7,2.7,0,0,1,2.6-.1l8.1,4.7c.7.3.6,1-.2,1.4l-8,4.7A3,3,0,0,1,255.2,297.5Z"/>
          <path class="cls-4" d="M267.8,304.7l-8.1-4.7c-.7-.3-.6-1,.1-1.4l8.1-4.7a2.8,2.8,0,0,1,2.5-.1l8.2,4.7c.6.4.5,1-.2,1.5l-8.1,4.6A2.5,2.5,0,0,1,267.8,304.7Z"/>
          <path class="cls-4" d="M280.3,312l-8.1-4.7c-.7-.4-.6-1.1.2-1.5l8-4.6a2.7,2.7,0,0,1,2.6-.1l8.1,4.6c.6.4.6,1.1-.2,1.5l-8,4.7A3.4,3.4,0,0,1,280.3,312Z"/>
          <path class="cls-4" d="M292.9,319.2l-8.2-4.7c-.6-.4-.5-1,.2-1.4l8.1-4.7a2.8,2.8,0,0,1,2.5-.1l8.1,4.7c.7.4.6,1-.1,1.5l-8.1,4.6A2.8,2.8,0,0,1,292.9,319.2Z"/>
          <path class="cls-4" d="M305.4,326.4l-8.1-4.6c-.7-.4-.6-1.1.2-1.5l8-4.7a3.4,3.4,0,0,1,2.6-.1l8.1,4.7c.6.4.5,1.1-.2,1.5l-8.1,4.6A2.5,2.5,0,0,1,305.4,326.4Z"/>
          <path class="cls-4" d="M317.9,333.7l-8.1-4.7c-.6-.4-.5-1,.2-1.5l8.1-4.6a2.8,2.8,0,0,1,2.5-.1l8.1,4.7c.7.3.6,1-.2,1.4l-8,4.7A3,3,0,0,1,317.9,333.7Z"/>
          <path class="cls-4" d="M330.5,340.9l-8.1-4.7c-.7-.3-.6-1,.1-1.4l8.1-4.7a2.8,2.8,0,0,1,2.5-.1l8.2,4.7c.6.4.5,1-.2,1.5l-8.1,4.6A2.5,2.5,0,0,1,330.5,340.9Z"/>
          <path class="cls-4" d="M343,348.2l-8.1-4.7c-.6-.4-.6-1.1.2-1.5l8-4.6a2.7,2.7,0,0,1,2.6-.1l8.1,4.7c.7.3.6,1-.2,1.4l-8,4.7A3.4,3.4,0,0,1,343,348.2Z"/>
          <path class="cls-4" d="M355.6,355.4l-8.2-4.7c-.6-.4-.5-1,.2-1.4l8.1-4.7a2.8,2.8,0,0,1,2.5-.1l8.1,4.7c.7.4.6,1-.1,1.5l-8.1,4.6A2.8,2.8,0,0,1,355.6,355.4Z"/>
          <path class="cls-4" d="M236.1,272.3l-8.1-4.7c-.7-.3-.6-1,.2-1.4l8-4.7a2.8,2.8,0,0,1,2.5-.1l8.2,4.7c.6.4.5,1-.2,1.5l-8.1,4.6A2.5,2.5,0,0,1,236.1,272.3Z"/>
          <path class="cls-4" d="M223.6,265.1l-8.1-4.7c-.7-.3-.6-1,.2-1.4l8-4.7a3,3,0,0,1,2.6-.1l8.1,4.7c.6.4.6,1-.2,1.5l-8,4.6A2.7,2.7,0,0,1,223.6,265.1Z"/>
          <path class="cls-4" d="M211.1,257.9l-8.1-4.7c-.6-.3-.6-1,.2-1.4l8-4.7a3,3,0,0,1,2.6-.1l8.1,4.7c.7.4.6,1-.2,1.5l-8,4.6A2.7,2.7,0,0,1,211.1,257.9Z"/>
          <path class="cls-4" d="M198.7,250.7l-8.2-4.7c-.6-.3-.5-1,.2-1.4l8.1-4.7a2.8,2.8,0,0,1,2.5-.1l8.1,4.7c.7.4.6,1-.2,1.5l-8,4.6A2.8,2.8,0,0,1,198.7,250.7Z"/>
          <path class="cls-4" d="M211.5,243.3l-8.1-4.7c-.7-.4-.6-1,.1-1.4l2.7-1.6a3,3,0,0,1,2.6-.1l8.1,4.7c.6.4.5,1-.2,1.5l-2.7,1.5A2.8,2.8,0,0,1,211.5,243.3Z"/>
          <path class="cls-4" d="M227.8,252.7l-8.2-4.7c-.6-.4-.5-1,.2-1.4l2.7-1.6a2.8,2.8,0,0,1,2.5-.1l8.2,4.7c.6.4.5,1-.2,1.5l-2.7,1.5A2.8,2.8,0,0,1,227.8,252.7Z"/>
          <path class="cls-4" d="M240.2,259.9l-8.1-4.7c-.7-.4-.6-1,.2-1.5l2.6-1.5a3,3,0,0,1,2.6-.1l8.1,4.7c.6.4.6,1-.2,1.4l-2.7,1.6A2.8,2.8,0,0,1,240.2,259.9Z"/>
          <path class="cls-4" d="M252.6,267.1l-8.1-4.7c-.6-.4-.6-1.1.2-1.5l2.6-1.5a2.7,2.7,0,0,1,2.6-.1L258,264c.7.3.6,1-.2,1.4l-2.6,1.6A3.4,3.4,0,0,1,252.6,267.1Z"/>
          <path class="cls-4" d="M265.1,274.2l-8.2-4.7c-.6-.3-.5-1,.2-1.4l2.7-1.6a3.1,3.1,0,0,1,2.5-.1l8.1,4.7c.7.4.6,1.1-.1,1.5l-2.7,1.5A2.5,2.5,0,0,1,265.1,274.2Z"/>
          <path class="cls-4" d="M334.4,314.3l-8.1-4.7c-.6-.4-.6-1,.2-1.5l2.7-1.5a2.8,2.8,0,0,1,2.5-.1l8.1,4.7c.7.4.6,1-.2,1.5l-2.6,1.5A3,3,0,0,1,334.4,314.3Z"/>
          <path class="cls-4" d="M346.9,321.5l-8.2-4.7c-.6-.4-.5-1.1.2-1.5l2.7-1.5a2.5,2.5,0,0,1,2.5-.1l8.1,4.7c.7.3.6,1-.1,1.4l-2.7,1.6A3.1,3.1,0,0,1,346.9,321.5Z"/>
          <path class="cls-4" d="M359.3,328.6l-8.1-4.6c-.7-.4-.6-1.1.1-1.5L354,321a3,3,0,0,1,2.6-.2l8.1,4.7c.6.4.5,1.1-.2,1.5l-2.7,1.5A2.5,2.5,0,0,1,359.3,328.6Z"/>
          <path class="cls-4" d="M371.7,335.8l-8.1-4.7c-.7-.3-.6-1,.2-1.4l2.6-1.6a3,3,0,0,1,2.6-.1l8.1,4.7c.7.4.6,1-.2,1.5l-2.6,1.5A3,3,0,0,1,371.7,335.8Z"/>
          <path class="cls-4" d="M248.6,279.6l-8.1-4.7c-.6-.4-.6-1,.2-1.5l8-4.6a2.7,2.7,0,0,1,2.6-.1l8.1,4.7c.7.3.6,1-.2,1.4l-8,4.7A3,3,0,0,1,248.6,279.6Z"/>
          <path class="cls-4" d="M261.2,286.8l-8.1-4.7c-.7-.3-.6-1,.1-1.4l8.1-4.7a2.8,2.8,0,0,1,2.5-.1l8.1,4.7c.7.4.6,1-.1,1.5l-8.1,4.6A2.8,2.8,0,0,1,261.2,286.8Z"/>
          <path class="cls-4" d="M273.7,294.1l-8.1-4.7c-.7-.4-.6-1.1.2-1.5l8-4.6a3,3,0,0,1,2.6-.2l8.1,4.7c.6.4.6,1.1-.2,1.5l-8,4.7A3.4,3.4,0,0,1,273.7,294.1Z"/>
          <path class="cls-4" d="M286.3,301.3l-8.2-4.7c-.6-.4-.5-1,.2-1.5l8.1-4.6a2.8,2.8,0,0,1,2.5-.1l8.1,4.7c.7.4.6,1-.2,1.4l-8,4.7A2.8,2.8,0,0,1,286.3,301.3Z"/>
          <path class="cls-4" d="M298.8,308.5l-8.1-4.6c-.7-.4-.6-1.1.2-1.5l8-4.7a3.4,3.4,0,0,1,2.6-.1l8.1,4.7c.6.4.5,1.1-.2,1.5l-8.1,4.6A2.5,2.5,0,0,1,298.8,308.5Z"/>
          <path class="cls-4" d="M311.3,315.8l-8.1-4.7c-.6-.4-.6-1,.2-1.5l8-4.6a2.7,2.7,0,0,1,2.6-.1l8.1,4.7c.7.3.6,1-.2,1.4l-8,4.7A3,3,0,0,1,311.3,315.8Z"/>
          <path class="cls-4" d="M323.9,323l-8.1-4.7c-.7-.3-.6-1,.1-1.4l8.1-4.7a2.8,2.8,0,0,1,2.5-.1l8.2,4.7c.6.4.5,1-.2,1.5l-8.1,4.6A2.5,2.5,0,0,1,323.9,323Z"/>
          <path class="cls-4" d="M336.4,330.3l-8.1-4.7c-.6-.4-.6-1.1.2-1.5l8-4.6a2.7,2.7,0,0,1,2.6-.1l8.1,4.6c.6.4.6,1.1-.2,1.5l-8,4.7A3.4,3.4,0,0,1,336.4,330.3Z"/>
          <path class="cls-4" d="M349,337.5l-8.2-4.7c-.6-.4-.5-1,.2-1.5l8.1-4.6a2.8,2.8,0,0,1,2.5-.1l8.1,4.7c.7.4.6,1-.1,1.5l-8.1,4.6A2.8,2.8,0,0,1,349,337.5Z"/>
          <path class="cls-4" d="M176.9,280.5,153,266.7c-.6-.4-.6-1.1.2-1.5l8-4.7a3.4,3.4,0,0,1,2.6-.1l23.9,13.8c.7.4.6,1.1-.2,1.5l-8,4.7A3.4,3.4,0,0,1,176.9,280.5Z"/>
          <path class="cls-4" d="M331,369.4l-23.9-13.8c-.7-.4-.6-1,.2-1.5l8-4.6a3,3,0,0,1,2.6-.1l23.9,13.8c.6.4.6,1-.2,1.5l-8,4.6A2.7,2.7,0,0,1,331,369.4Z"/>
          <path class="cls-4" d="M280.9,356.5l-8.2-4.7c-.6-.4-.5-1.1.2-1.5l9.6-5.5a2.5,2.5,0,0,1,2.5-.1l8.2,4.7c.6.3.5,1-.2,1.4l-9.6,5.6A3.1,3.1,0,0,1,280.9,356.5Z"/>
          <path class="cls-4" d="M189.8,303.9l-13-7.5c-.7-.4-.6-1.1.2-1.5l9.6-5.5a2.5,2.5,0,0,1,2.5-.1l13,7.5c.6.3.6,1-.2,1.4l-9.6,5.6A2.8,2.8,0,0,1,189.8,303.9Z"/>
          <path class="cls-4" d="M268.8,349.5l-13-7.5c-.7-.4-.6-1,.2-1.5l9.5-5.5a3,3,0,0,1,2.6-.1l13,7.5c.6.4.5,1-.2,1.4l-9.6,5.6A2.8,2.8,0,0,1,268.8,349.5Z"/>
          <path class="cls-4" d="M207.9,314.3l-13-7.5c-.7-.3-.6-1,.2-1.4l9.5-5.6a3,3,0,0,1,2.6-.1l13,7.5c.6.4.6,1.1-.2,1.5l-9.6,5.5A2.5,2.5,0,0,1,207.9,314.3Z"/>
          <path class="cls-4" d="M207.3,299.8l56.4,32.6c.8.4.8,1,0,1.4l-9.7,5.7a3,3,0,0,1-2.6,0L195,306.9Z"/>
          <path class="cls-4" d="M315.9,369.6l9,5.2c.6.3.5.9-.1,1.2l-3.9,2.3a2.6,2.6,0,0,1-2.1.1l-9.1-5.3c-.5-.3-.4-.8.2-1.2l3.9-2.2A2.2,2.2,0,0,1,315.9,369.6Z"/>
          <path class="cls-4" d="M303.3,362.3l9,5.2a.6.6,0,0,1-.1,1.2l-4,2.3a2.6,2.6,0,0,1-2.1.1l-9-5.3c-.5-.3-.5-.8.2-1.2l3.9-2.2A2.2,2.2,0,0,1,303.3,362.3Z"/>
          <path class="cls-4" d="M290.7,355.1l9.1,5.2c.5.3.4.8-.2,1.2l-3.9,2.2a2.2,2.2,0,0,1-2.1.1l-9-5.2c-.6-.3-.5-.8.1-1.2l3.9-2.3A2.2,2.2,0,0,1,290.7,355.1Z"/>
          <path class="cls-4" d="M310.2,358.3l9,5.2c.6.3.5.9-.1,1.2l-3.9,2.3a2.6,2.6,0,0,1-2.1.1l-9.1-5.3c-.5-.3-.4-.8.2-1.2l3.9-2.2A2.2,2.2,0,0,1,310.2,358.3Z"/>
        </g>
        <path class="cls-4" d="M202.7,371.5l-56-32.3c-1.6-1-1.4-2.6.5-3.7L181,316a7,7,0,0,1,6.3-.3l56,32.3c1.7,1,1.5,2.6-.4,3.7l-33.8,19.5A7.2,7.2,0,0,1,202.7,371.5Z"/>
      </g>
    </g>
    <g id="dev">
      <g>
        <g>
          <g class="cls-2">
            <g class="cls-2">
              <path class="cls-12" d="M240,154.4l2.9-1.7h0l-3,1.7Z"/>
            </g>
            <path class="cls-9" d="M253.7,127,225,110.4c-1.4-.8-2.6-.9-3.5-.3l-2.9,1.6a3.5,3.5,0,0,1,3.5.4l28.7,16.6a10.6,10.6,0,0,1,4.9,8.4v20.7a3.3,3.3,0,0,1-1.4,3.1l2.9-1.7a3.3,3.3,0,0,0,1.4-3.1V135.4A10.6,10.6,0,0,0,253.7,127Z"/>
            <g>
              <polygon class="cls-1" points="227 146.9 227.8 147.3 227.8 147.3 227 146.9"/>
              <polygon class="cls-1" points="240 154.4 241.7 155.4 240 154.4 240 154.4"/>
              <path class="cls-13" d="M250.8,128.7l-28.7-16.6c-2.7-1.6-4.9-.3-4.9,2.8v20.7A10.8,10.8,0,0,0,222,144l5,2.9h0l.8.4h0l12.2,7.1h0l1.7,1h0l9,5.2c2.7,1.5,4.9.3,4.9-2.8V137.1A10.6,10.6,0,0,0,250.8,128.7Z"/>
            </g>
          </g>
          <g>
            <path class="cls-5" d="M231.2,131.8l-6.2-2,6.2,6.6v2.4l-8.9-9.6v-2.4l8.9,2.7Z"/>
            <path class="cls-5" d="M238,129.4l2.6,1.8-6.2,13.6-2.6-1.8Z"/>
            <path class="cls-5" d="M250,145.6V148l-9-2.6V143l6.3,2-6.3-6.6v-2.3Z"/>
          </g>
        </g>
        <g class="cls-2">
          <g>
            <path class="cls-9" d="M205,129.7a2.7,2.7,0,0,1,2-.2l1.6.6a4.9,4.9,0,0,1,1.4,1.1l-2.2,1.3a7.2,7.2,0,0,0-1.5-1.1,4.7,4.7,0,0,0-1.5-.6,2.6,2.6,0,0,0-2,.2Z"/>
            <path class="cls-9" d="M211.7,128.4a2.9,2.9,0,0,1,2.3-.3,6.7,6.7,0,0,1,1.8.7,11,11,0,0,1,2.8,2.5,13.2,13.2,0,0,1,2.9,6.5l1.5.6a9.3,9.3,0,0,1,2.4,2.1,10.6,10.6,0,0,1,2.5,6.5c0,1.6-.5,2.7-1.4,3.2l-2.3,1.3a3.4,3.4,0,0,0,1.5-3.2,10.7,10.7,0,0,0-2.6-6.5,7.9,7.9,0,0,0-2.4-2.1l-1.5-.6a12.3,12.3,0,0,0-2.9-6.5,11,11,0,0,0-2.8-2.5,7.7,7.7,0,0,0-1.7-.7,3.3,3.3,0,0,0-2.4.3Z"/>
          </g>
          <path class="cls-8" d="M213.5,130.1c-2.9-1.6-5.3-.6-5.7,2.4a7.2,7.2,0,0,0-1.5-1.1c-2.7-1.6-5-.3-5,2.8a11,11,0,0,0,5,8.7l14.4,8.3c2.7,1.6,5,.3,5-2.9a11,11,0,0,0-5-8.6l-1.5-.6A12.9,12.9,0,0,0,213.5,130.1Z"/>
        </g>
      </g>
    </g>
    <g id="search-bar">
      <g>
        <g>
          <polygon class="cls-14" points="391.7 202.6 393.9 201.3 393.9 181.3 391.7 182.6 391.7 202.6"/>
          <polygon class="cls-15" points="268.7 111.8 391.7 182.6 393.9 181.3 270.9 109.9 268.7 111.8"/>
          <polygon class="cls-16" points="268.7 131.8 391.7 202.6 391.7 182.6 268.7 111.8 268.7 131.8"/>
        </g>
        <path class="cls-5" d="M292.7,138.4l-.9-4.7-1.3-.8-.9,3.2-.7-4.1-1-.6.9,5.9,1.2.8,1-3.5.9,4.6a7.4,7.4,0,0,1,1.3.8l1.4-4.6-.9-.5Z"/>
        <path class="cls-5" d="M285.5,134.1l-.9-4.7-1.3-.8-.9,3.2-.7-4.1-1-.6,1,5.9a4.1,4.1,0,0,0,1.1.7l1-3.4.9,4.6a7.4,7.4,0,0,1,1.3.8l1.4-4.6-.8-.5Z"/>
        <path class="cls-5" d="M278.3,129.8l-.9-4.7-1.3-.8-.9,3.2-.7-4.1-1-.7,1,6,1.1.7,1-3.4.9,4.6,1.4.8,1.3-4.7-.8-.4Z"/>
        <path class="cls-5" d="M294.3,140.6h0a.9.9,0,0,0,.3.5h.1c.2.1.4,0,.4-.3a.8.8,0,0,0-.4-.6C294.5,140.3,294.3,140.4,294.3,140.6Z"/>
        <g class="cls-2">
          <path class="cls-8" d="M385,197.2l-5.3,3.6,12.6,17.7a3.2,3.2,0,0,0,4.4.8,3.2,3.2,0,0,0,.8-4.5Z"/>
          <path class="cls-9" d="M381.1,197.2c-1.5,1.1-2,2.8-1.3,3.8s2.6,1.1,4,0,2-2.7,1.3-3.8S382.5,196.2,381.1,197.2Z"/>
          <path class="cls-5" d="M381.4,197.7A1.5,1.5,0,1,0,383,200c.9-.6,1.3-1.7.8-2.3A1.8,1.8,0,0,0,381.4,197.7Z"/>
          <path class="cls-5" d="M378.8,193.9l-1.8.9,3.7,5.2,3.2-2.2-3.7-5.2A5.7,5.7,0,0,1,378.8,193.9Z"/>
          <g>
            <path class="cls-5" d="M372.5,165.2a11.3,11.3,0,0,0-6.1-2c-4.8,0-9.7,4.2-9.7,12.2a6.6,6.6,0,0,0,.1,1.4,25.1,25.1,0,0,0,8.6,17.1l1.3,1a11.3,11.3,0,0,0,6.1,2,9.3,9.3,0,0,0,6.7-3.1c1.8-2,3-5.1,3-9.1C382.5,177.3,378.2,168.9,372.5,165.2Zm.3,28.2a8.4,8.4,0,0,1-4.2-1.4l-1-.8c-4-3.2-7-9.2-7.4-14.6v-1.2c0-6,3.2-8.7,6.2-8.7a7,7,0,0,1,4.2,1.4c4.8,3.1,8.5,10.4,8.4,16.6S375.8,193.4,372.8,193.4Z"/>
            <path class="cls-17" d="M379,184.7c0,6-3.2,8.7-6.2,8.7a8.4,8.4,0,0,1-4.2-1.4l-1-.8c-4-3.2-7-9.2-7.4-14.6v-1.2c0-6,3.2-8.7,6.2-8.7a7,7,0,0,1,4.2,1.4C375.4,171.2,379.1,178.5,379,184.7Z"/>
          </g>
        </g>
      </g>
    </g>
    <g id="cube">
      <g class="cls-18">
        <g>
          <polygon class="cls-19" points="249.4 254.1 306.2 221.3 363.1 254.1 306.2 286.9 249.4 254.1"/>
          <g>
            <polygon class="cls-8" points="261.9 251.3 306.2 276.9 350.5 251.3 306.2 225.8 261.9 251.3"/>
            <polygon class="cls-8" points="306.2 174.8 306.2 225.9 306.2 225.9 350.5 251.4 350.5 200.3 350.5 200.3 306.2 174.8"/>
            <polygon class="cls-8" points="306.2 174.8 261.9 200.3 261.9 200.3 261.9 251.4 306.2 225.9 306.2 225.9 306.2 174.8"/>
            <polygon class="cls-8" points="261.9 200.3 306.2 225.9 350.5 200.3 306.2 174.8 261.9 200.3"/>
            <polygon class="cls-8" points="261.9 200.3 261.9 251.5 261.9 251.5 306.2 277 306.2 225.9 306.2 225.9 261.9 200.3"/>
            <polygon class="cls-8" points="350.5 200.3 306.2 225.9 306.2 225.9 306.2 277 350.5 251.5 350.5 251.4 350.5 200.3"/>
          </g>
          <polygon class="cls-20" points="249.4 188.5 306.2 221.3 363.1 188.5 306.2 155.7 249.4 188.5"/>
          <polygon class="cls-20" points="249.4 188.5 249.4 254.1 249.4 254.1 306.2 286.9 306.2 221.3 306.2 221.3 249.4 188.5"/>
          <polygon class="cls-20" points="363.1 188.5 306.2 221.3 306.2 221.3 306.2 286.9 363.1 254.1 363.1 254.1 363.1 188.5"/>
          <polygon class="cls-5" points="306.2 221.7 249.2 188.8 249.6 188.2 306.2 220.9 362.9 188.2 363.2 188.8 306.2 221.7"/>
          <rect class="cls-5" x="248.4" y="250.2" width="14.5" height="0.66" transform="translate(-91 161.4) rotate(-30)"/>
          <rect class="cls-5" x="356.4" y="243.2" width="0.7" height="14.5" transform="translate(-38.6 434.2) rotate(-60)"/>
          <rect class="cls-5" x="305.9" y="221.3" width="0.7" height="65.62"/>
          <rect class="cls-5" x="305.9" y="155.7" width="0.7" height="19.08"/>
        </g>
      </g>
    </g>
    <g id="lueur">
      <polygon class="cls-21" points="293.8 161.8 359.4 201.9 343.8 266.3 113.7 392 6.1 327.8 293.8 161.8"/>
    </g>
    <g id="envelope">
      <g class="cls-2">
        <g class="cls-2">
          <g class="cls-22">
            <g class="cls-2">
              <path class="cls-23" d="M389.9,292.4l2-1.2h-.1l-2,1.2h.1"/>
              <path class="cls-24" d="M389.8,292.3l2-1.2a.8.8,0,0,0-.2-.4l-2,1.2.2.4"/>
              <path class="cls-25" d="M389.6,291.9l2-1.2a.8.8,0,0,1-.2-.4l-2,1.2c0,.1.1.2.2.4"/>
              <path class="cls-26" d="M389.4,291.5l2-1.2a.8.8,0,0,1-.2-.4l-2,1.2.2.4"/>
              <path class="cls-27" d="M389.2,291.1l2-1.2a.8.8,0,0,1-.2-.4l-2,1.2c0,.1.1.2.2.4"/>
              <path class="cls-28" d="M389,290.7l2-1.2-.2-.4-2,1.1c0,.2.1.3.2.5"/>
              <path class="cls-29" d="M388.8,290.2l2-1.1c-.1-.2-.1-.4-.2-.5l-2,1.2c.1.1.1.3.2.4"/>
              <path class="cls-30" d="M388.6,289.8l2-1.2c0-.2-.1-.3-.1-.5l-2,1.2c0,.2.1.3.1.5"/>
            </g>
          </g>
        </g>
        <polygon class="cls-31" points="403.7 282.8 405.7 281.6 390.5 288.1 388.5 289.3 403.7 282.8"/>
        <polygon class="cls-32" points="403.7 282.8 405.7 281.6 390.5 257.8 388.5 259 403.7 282.8"/>
        <polygon class="cls-33" points="405.5 285.7 407.5 284.5 391.9 291.2 389.9 292.4 405.5 285.7"/>
        <polygon class="cls-32" points="409.7 292.2 411.7 291 407.5 284.5 405.5 285.7 409.7 292.2"/>
        <g class="cls-2">
          <g class="cls-34">
            <g class="cls-2">
              <path class="cls-35" d="M388.5,259l2-1.2a3.1,3.1,0,0,1,1.1-1.4l-2,1.1a2.5,2.5,0,0,0-1.1,1.5"/>
            </g>
          </g>
        </g>
        <g class="cls-2">
          <g class="cls-36">
            <g class="cls-2">
              <path class="cls-37" d="M389.9,257.4l2-1.1h-.2l-2,1.1h.2"/>
              <path class="cls-38" d="M389.7,257.5l2-1.1h-.1l-2,1.1h.1"/>
            </g>
          </g>
        </g>
        <g class="cls-2">
          <g class="cls-39">
            <g class="cls-2">
              <path class="cls-40" d="M410.6,293.1l2-1.2h-.1l-.4-.3-2.1,1.2.5.3a.1.1,0,0,1,.1.1"/>
              <path class="cls-41" d="M410,292.7l2.1-1.2h-.2l-2,1.1v.2"/>
              <path class="cls-32" d="M409.9,292.5l2-1.1v-.2l-2,1.2a.1.1,0,0,0,.1.1"/>
              <path class="cls-42" d="M409.8,292.4l2-1.2h-.1l-2,1.2h.1"/>
              <path class="cls-23" d="M409.7,292.3l2-1.2h0l-2,1.2h0"/>
              <polyline class="cls-24" points="409.7 292.2 411.7 291 411.7 291 409.7 292.2 409.7 292.2"/>
            </g>
          </g>
        </g>
        <g class="cls-2">
          <g class="cls-43">
            <g class="cls-2">
              <polyline class="cls-27" points="411.3 293.1 413.3 291.9 413.3 291.9 411.2 293.1 411.3 293.1"/>
              <path class="cls-26" d="M411.2,293.1l2.1-1.2a.1.1,0,0,0-.1.1l-2,1.1h0"/>
              <path class="cls-25" d="M411.2,293.1l2-1.1h-.1l-2,1.1h.1"/>
              <path class="cls-24" d="M411.1,293.1l2-1.1H413l-2,1.2h.1"/>
              <path class="cls-23" d="M411,293.2l2-1.2h0l-2,1.2h0"/>
              <path class="cls-42" d="M411,293.2l2-1.2h-.1l-2,1.1h.1"/>
              <path class="cls-32" d="M410.9,293.1l2-1.1h-.1l-2,1.1h.1"/>
              <path class="cls-41" d="M410.8,293.1l2-1.1h-.2l-2,1.2h.2"/>
              <path class="cls-40" d="M410.6,293.1l2-1.2h-.1l-.4-.3-2.1,1.2.5.3a.1.1,0,0,1,.1.1"/>
            </g>
          </g>
        </g>
        <polygon class="cls-44" points="410.5 289.7 412.5 288.6 391.9 256.3 389.9 257.4 410.5 289.7"/>
        <polygon class="cls-33" points="415.5 291.3 417.5 290.1 413.3 291.9 411.3 293.1 415.5 291.3"/>
        <polygon class="cls-32" points="431.3 316.1 433.3 315 417.5 290.1 415.5 291.3 431.3 316.1"/>
        <g class="cls-2">
          <g class="cls-45">
            <g class="cls-2">
              <path class="cls-35" d="M431.5,316l2-1.1a3.3,3.3,0,0,0,1.4-3.1l-2,1.1c0,1.6-.5,2.6-1.4,3.1"/>
            </g>
          </g>
        </g>
        <g class="cls-2">
          <g class="cls-46">
            <g class="cls-2">
              <path class="cls-35" d="M431.5,316l2-1.1a3.3,3.3,0,0,0,1.4-3.1l-2,1.1c0,1.6-.5,2.6-1.4,3.1"/>
            </g>
          </g>
        </g>
        <g class="cls-2">
          <g class="cls-47">
            <g class="cls-2">
              <path class="cls-35" d="M431.5,316l2-1.1a3.3,3.3,0,0,0,1.4-3.1l-2,1.1c0,1.6-.5,2.6-1.4,3.1"/>
            </g>
          </g>
        </g>
        <polygon class="cls-44" points="432.7 314.6 434.7 313.4 419.3 289.3 417.3 290.5 432.7 314.6"/>
        <polygon class="cls-33" points="432.6 283.9 434.6 282.8 419.3 289.3 417.3 290.5 432.6 283.9"/>
        <polygon class="cls-31" points="431 280.9 433 279.7 412.5 288.6 410.5 289.7 431 280.9"/>
        <path class="cls-1" d="M432.6,283.9l2-1.1a11.4,11.4,0,0,0-1.6-3.1l-2,1.2A12.4,12.4,0,0,1,432.6,283.9Z"/>
        <g>
          <g class="cls-2">
            <path class="cls-48" d="M431.5,316l2-1.1a3.1,3.1,0,0,0,1.2-1.5l-2,1.2a3.3,3.3,0,0,1-1.2,1.4"/>
          </g>
          <path class="cls-48" d="M432.9,312.9l2-1.1a3.3,3.3,0,0,1-1.4,3.1l-2,1.1C432.4,315.5,432.9,314.5,432.9,312.9Z"/>
          <g>
            <path class="cls-4" d="M432.7,314.6l2-1.2a3.1,3.1,0,0,1-1.2,1.5l-2,1.1A3.3,3.3,0,0,0,432.7,314.6Z"/>
            <path class="cls-49" d="M390.4,257.1l1.4-.8h2.6l.7.3L430.2,277l.8.5.2.2.6.5h0l.5.6h.1l.3.4c.1.1.2.2.2.3h.1l.3.4.3.4c0,.1,0,.2.1.2h.1l.2.5c.1.1.1.2.2.4h0l.2.3c0,.2.1.3.1.5a.4.4,0,0,1,.1.3.1.1,0,0,1,.1.1h0a.9.9,0,0,1,.1.5.6.6,0,0,1,.1.4v.2h.1v27.4a3.4,3.4,0,0,1-.2,1.5l-2,1.2a4.1,4.1,0,0,0,.2-1.6V286.5a4.5,4.5,0,0,0-.1-1.1v-.2c-.1-.3-.1-.6-.2-1h-.1l-.3-.9c0-.1-.1-.2-.1-.3h0a4.1,4.1,0,0,0-.5-.9c0-.1-.1-.2-.1-.3l-.3-.4-.3-.4h0v-.2l-.5-.6c0-.1,0-.1-.1-.1l-.6-.7-.5-.4-.2-.2-.8-.6-35.1-20.2-.8-.4c-.1,0-.2,0-.2-.1h-1.5l-.7.2Z"/>
          </g>
        </g>
        <path class="cls-4" d="M431,280.9l-20.5,8.8-20.6-32.3a2.8,2.8,0,0,0-1.4,1.6l15.2,23.8-15.2,6.5a12.3,12.3,0,0,0,1.4,3.1l15.6-6.7,4.2,6.5a3,3,0,0,0,.8.8.8.8,0,0,0,.8.1l4.2-1.8,15.8,24.8a2.6,2.6,0,0,0,1.4-1.5l-15.4-24.1,15.3-6.6A12.4,12.4,0,0,0,431,280.9Z"/>
        <path class="cls-5" d="M428.2,278.1a10.7,10.7,0,0,1,4.8,8.4v26.4c0,3.1-2.1,4.3-4.8,2.8L393,295.4a10.2,10.2,0,0,1-4.8-8.3V260.6c0-3,2.2-4.3,4.9-2.7Zm-39.7,11.2a12.3,12.3,0,0,0,1.4,3.1l15.6-6.7,4.2,6.5a3,3,0,0,0,.8.8.8.8,0,0,0,.8.1l4.2-1.8,15.8,24.8a2.6,2.6,0,0,0,1.4-1.5l-15.4-24.1,15.3-6.6a12.4,12.4,0,0,0-1.6-3l-20.5,8.8-20.6-32.3a2.8,2.8,0,0,0-1.4,1.6l15.2,23.8-15.2,6.5"/>
      </g>
    </g>
    <g id="tick">
      <g class="cls-2">
        <path class="cls-50" d="M294.6,335.3l-8.2-4.7h-2.5a.1.1,0,0,0-.1.1l-.7.3a2.1,2.1,0,0,0-.8.6l-.3.2-.5.4h-.1c0,.1-.1.1-.1.2l-.3.3c-.1.1-.2.3-.4.4h0l-.3.3-.2.4-.3.4-24.3,41.3,8.2,4.7L288,339a3.6,3.6,0,0,1,.7-1h0l.7-.8.2-.2c.2-.1.3-.3.5-.5l.3-.2.8-.6.9-.4h.1l.8-.2h.8l.8.3Z"/>
        <polygon class="cls-51" points="257 376.5 248.9 371.8 255.5 375.6 263.7 380.3 257 376.5"/>
        <path class="cls-52" d="M249.3,386.5c0-.1-.1-.2-.1-.3s-.1-.5-.1-.7v-.4a2.2,2.2,0,0,1,0-.8v-.6l.3-1h0a4.9,4.9,0,0,1,.4-1.1h0l.6-1.2.7-1.1h.1l.7-.9h.1l.6-.6a.2.2,0,0,0,.2-.2l.9-.6.8-.4h.2l.7-.2h.9l.7.3-8.1-4.7h0l-.3-.2h-2.4l-.6.3-.9.6-.3.2c-.1.2-.3.3-.4.4h-.1l-.2.2-.2.3-.4.4H243l-.2.2-.3.4a.5.5,0,0,1-.2.4h0l-.2.3c-.1.2-.2.3-.2.4l-.2.4h0c-.1.1-.1.2-.2.4s-.1.2-.1.4a.4.4,0,0,0-.1.3.1.1,0,0,0-.1.1h0c0,.2-.1.3-.1.5s-.1.3-.1.4h0v.4a2.8,2.8,0,0,0-.1.9.8.8,0,0,0,.1.4,1.3,1.3,0,0,0,.1.6c0,.2,0,.3.1.4l.3.6a.3.3,0,0,1,.1.2l.7.6,8.1,4.7a1.2,1.2,0,0,1-.6-.6c-.1,0-.1-.1-.2-.2Z"/>
        <path class="cls-5" d="M291.2,335.6a3.5,3.5,0,0,1,3.4-.3c1.8,1.1,1.8,4.5-.1,7.7l-27.6,46.9a9.8,9.8,0,0,1-3.3,3.4,3.3,3.3,0,0,1-3.3.3l-9.9-5.7c-1.8-1-1.8-4.4,0-7.6a9.3,9.3,0,0,1,3.3-3.5,3.3,3.3,0,0,1,3.3-.3l6.7,3.8L288,339A10.5,10.5,0,0,1,291.2,335.6Z"/>
      </g>
    </g>
    <g id="graph">
      <g>
        <path class="cls-4" d="M176.3,187.8l3.5-2c-1.5.8-3.7.7-6.1-.7a17.9,17.9,0,0,1-6.7-7.4,17.7,17.7,0,0,1-1.9-7.5c0-2.7,1-4.7,2.5-5.6l-3.5,2.1c-1.6.9-2.5,2.8-2.6,5.6a17.1,17.1,0,0,0,2,7.4,18.9,18.9,0,0,0,6.7,7.5C172.6,188.6,174.7,188.7,176.3,187.8Z"/>
        <path class="cls-53" d="M158.4,156.9c-3,1.7-4.9,5.4-4.9,10.7a32.6,32.6,0,0,0,3.8,14.4c3,6,7.6,11.4,12.8,14.4s8.8,3,11.9,1.2l-5.7-9.8c-1.6.9-3.7.8-6.1-.6a18.9,18.9,0,0,1-6.7-7.5,17.1,17.1,0,0,1-2-7.4c.1-2.8,1-4.7,2.6-5.6Z"/>
        <path class="cls-13" d="M170.2,158.1l3.6-2.1c-4.6-2.7-8.8-2.9-11.8-1.2l-3.6,2.1C161.5,155.1,165.6,155.4,170.2,158.1Z"/>
        <path class="cls-9" d="M170.2,158.1c-4.6-2.7-8.7-3-11.8-1.2l5.7,9.8c1.6-.9,3.7-.8,6.1.6Z"/>
        <path class="cls-13" d="M170.2,158.1v9.2a18.9,18.9,0,0,1,6.7,7.5l6.2-2.3C180.1,166.5,175.4,161.1,170.2,158.1Z"/>
        <path class="cls-8" d="M183.1,172.5l3.6-2.1c-3.1-6-7.7-11.4-12.9-14.4l-3.6,2.1C175.4,161.1,180.1,166.5,183.1,172.5Z"/>
        <polygon class="cls-54" points="176.3 187.8 179.8 185.8 185.5 195.3 182 197.6 176.3 187.8"/>
        <path class="cls-55" d="M185.4,196.8l2.9-1.7c2.5-1.4,4-4.4,4-8.7a26.7,26.7,0,0,0-3-11.7l-2.9,1.7a25.4,25.4,0,0,1,3,11.7C189.4,192.4,187.9,195.4,185.4,196.8Z"/>
        <path class="cls-56" d="M186.4,176.4l-5.1,1.8a13.9,13.9,0,0,1,1.6,6.1c0,2.2-.8,3.8-2.1,4.5l4.6,8c2.5-1.4,4-4.4,4-8.7A25.4,25.4,0,0,0,186.4,176.4Z"/>
        <polygon class="cls-13" points="189.3 174.7 186.4 176.4 181.3 178.2 184.3 176.5 189.3 174.7"/>
      </g>
    </g>
    <g id="paper-plane">
      <g>
        <g>
          <polygon class="cls-13" points="342 0 233.4 42.5 280.2 48.1 342 0"/>
          <polygon class="cls-9" points="279.5 48 286.7 68.3 342 0 279.5 48"/>
          <polygon class="cls-4" points="295 52.7 286.7 68.3 342 0 295 52.7"/>
          <polygon class="cls-13" points="342 0 327.4 71.6 295 52.7 342 0"/>
        </g>
        <g>
          <polygon class="cls-8" points="370.3 80.5 304 119.2 335 118.1 370.3 80.5"/>
          <polygon class="cls-9" points="334.5 118.1 341.3 130.6 370.3 80.5 334.5 118.1"/>
          <polygon class="cls-4" points="345.1 119.6 341.3 130.6 370.3 80.5 345.1 119.6"/>
          <polygon class="cls-8" points="370.3 80.5 368.1 128.6 345.1 119.6 370.3 80.5"/>
        </g>
      </g>
    </g>
  </g>
</svg>
