<?xml version="1.0" encoding="utf-8"?>
<!-- Generator: Adobe Illustrator 23.0.6, SVG Export Plug-In . SVG Version: 6.00 Build 0)  -->
<svg version="1.1" xmlns="http://www.w3.org/2000/svg" xmlns:xlink="http://www.w3.org/1999/xlink" x="0px" y="0px"
	 viewBox="0 0 216.7 198.3" style="enable-background:new 0 0 216.7 198.3;" xml:space="preserve">
<style type="text/css">
	.st0{fill:url(#SVGID_1_);}
	.st1{fill:url(#SVGID_2_);}
	.st2{fill:#FFFFFF;}
	.st3{fill:url(#SVGID_3_);}
	.st4{fill:#121921;}
	.st5{fill:#2FB196;}
	.st6{fill:url(#SVGID_4_);}
	.st7{fill:url(#SVGID_5_);}
	.st8{fill:url(#SVGID_6_);}
	.st9{fill:url(#SVGID_7_);}
	.st10{fill:url(#SVGID_8_);}
	.st11{fill:url(#SVGID_9_);}
	.st12{fill:url(#SVGID_10_);}
	.st13{fill:url(#SVGID_11_);}
	.st14{fill:url(#SVGID_12_);}
	.st15{fill:url(#SVGID_13_);}
	.st16{fill:url(#SVGID_14_);}
	.st17{fill:url(#SVGID_15_);}
	.st18{fill:url(#SVGID_16_);}
	.st19{opacity:0.2;}
	.st20{fill:url(#SVGID_17_);}
	.st21{fill:#40F4C9;}
	.st22{fill:url(#SVGID_18_);}
	.st23{opacity:0.5;fill:#121921;}
	.st24{fill:url(#SVGID_19_);}
	.st25{fill:url(#SVGID_20_);}
	.st26{fill:url(#SVGID_21_);}
	.st27{fill:url(#SVGID_22_);}
	.st28{fill:url(#SVGID_23_);}
	.st29{fill:url(#SVGID_24_);}
	.st30{fill:url(#SVGID_25_);}
	.st31{fill:url(#SVGID_26_);}
	.st32{fill:url(#SVGID_27_);}
</style>
<g id="bar">
	<g>
		<g>
			<g>
				
					<linearGradient id="SVGID_1_" gradientUnits="userSpaceOnUse" x1="1339.0469" y1="1237.1362" x2="1433.1254" y2="1188.7062" gradientTransform="matrix(0.9608 -0.2773 0.2773 0.9608 -1488.2728 -736.0106)">
					<stop  offset="0" style="stop-color:#2FB196"/>
					<stop  offset="1" style="stop-color:#121921"/>
				</linearGradient>
				<polygon class="st0" points="142.4,77.4 215.6,9.2 216.7,13.1 143.5,81.2 				"/>
				
					<linearGradient id="SVGID_2_" gradientUnits="userSpaceOnUse" x1="1340.5779" y1="1235.2439" x2="1316.5684" y2="1221.5242" gradientTransform="matrix(0.9608 -0.2773 0.2773 0.9608 -1488.2728 -736.0106)">
					<stop  offset="0" style="stop-color:#2FB196"/>
					<stop  offset="1" style="stop-color:#121921"/>
				</linearGradient>
				<polygon class="st1" points="143.5,81.2 118.4,75 117.3,71.2 142.4,77.4 				"/>
				<polygon class="st2" points="178.3,0 215.6,9.2 142.4,77.4 117.3,71.2 				"/>
				
					<linearGradient id="SVGID_3_" gradientUnits="userSpaceOnUse" x1="1318.8212" y1="1194.9979" x2="1397.1266" y2="1194.9979" gradientTransform="matrix(0.9608 -0.2773 0.2773 0.9608 -1488.2728 -736.0106)">
					<stop  offset="0" style="stop-color:#CADEDA"/>
					<stop  offset="1" style="stop-color:#2FB196;stop-opacity:0.2"/>
				</linearGradient>
				<line class="st3" x1="117.3" y1="71.2" x2="178.3" y2="0"/>
				<g>
					<polygon class="st4" points="161.5,23.8 173.7,26.8 182.1,18 169.1,14.8 					"/>
					<polygon class="st4" points="185.2,18.8 176.8,27.6 189,30.6 198.2,22 					"/>
					<polygon class="st4" points="174.6,29.9 166.2,38.6 177.3,41.4 186.5,32.9 					"/>
					<polygon class="st4" points="154.1,63.1 163.2,54.5 153.2,52.1 144.8,60.8 					"/>
					<polygon class="st4" points="139.4,62.4 130.4,60.1 122.2,69.7 130.4,71.8 					"/>
					<polygon class="st4" points="163.9,41 155.5,49.7 165.7,52.3 174.9,43.7 					"/>
					<polygon class="st4" points="141.7,60 150.1,51.3 140.1,48.8 132.4,57.7 					"/>
					<polygon class="st4" points="163,37.9 171.4,29.1 159.4,26.2 151.8,35.1 					"/>
					<polygon class="st4" points="184.3,15.7 193.3,6.4 179.3,3 171.2,12.4 					"/>
					<polygon class="st4" points="187.5,16.5 200.6,19.7 210.4,10.6 196.4,7.2 					"/>
					<polygon class="st4" points="142.6,63.2 133.5,72.5 141.7,74.6 151.6,65.4 					"/>
					<polygon class="st4" points="152.3,48.9 160.7,40.2 149.8,37.5 142.1,46.4 					"/>
				</g>
			</g>
			<g>
				<polygon class="st4" points="127.9,86 125.4,85.4 126.2,88 128.7,88.6 				"/>
				<polygon class="st5" points="136.9,76.6 134.4,76 125.4,85.4 127.9,86 				"/>
				
					<linearGradient id="SVGID_4_" gradientUnits="userSpaceOnUse" x1="1324.8844" y1="1236.0009" x2="1336.1487" y2="1236.0009" gradientTransform="matrix(0.9608 -0.2773 0.2773 0.9608 -1488.2728 -736.0106)">
					<stop  offset="0" style="stop-color:#2FB196"/>
					<stop  offset="1" style="stop-color:#121921"/>
				</linearGradient>
				<polygon class="st6" points="128.7,88.6 137.7,79.3 136.9,76.6 127.9,86 				"/>
			</g>
			<g>
				<polygon class="st4" points="116.6,83.2 114.1,82.6 114.9,85.2 117.4,85.8 				"/>
				<polygon class="st5" points="125.6,73.8 123.1,73.2 114.1,82.6 116.6,83.2 				"/>
				
					<linearGradient id="SVGID_5_" gradientUnits="userSpaceOnUse" x1="1314.8311" y1="1230.2043" x2="1326.0953" y2="1230.2043" gradientTransform="matrix(0.9608 -0.2773 0.2773 0.9608 -1488.2728 -736.0106)">
					<stop  offset="0" style="stop-color:#2FB196"/>
					<stop  offset="1" style="stop-color:#121921"/>
				</linearGradient>
				<polygon class="st7" points="117.4,85.8 126.4,76.5 125.6,73.8 116.6,83.2 				"/>
			</g>
		</g>
		<g>
			<g>
				<g>
					
						<linearGradient id="SVGID_6_" gradientUnits="userSpaceOnUse" x1="1264.7799" y1="1212.8986" x2="1257.9213" y2="1230.7649" gradientTransform="matrix(0.9608 -0.2773 0.2773 0.9608 -1488.2728 -736.0106)">
						<stop  offset="0" style="stop-color:#40F4C9"/>
						<stop  offset="1" style="stop-color:#121921"/>
					</linearGradient>
					<polygon class="st8" points="73.9,85.2 55.2,75.5 50.7,93.8 71.8,93.9 					"/>
					
						<linearGradient id="SVGID_7_" gradientUnits="userSpaceOnUse" x1="1256.4946" y1="1237.7135" x2="1260.4392" y2="1224.6145" gradientTransform="matrix(0.9608 -0.2773 0.2773 0.9608 -1488.2728 -736.0106)">
						<stop  offset="0" style="stop-color:#40F4C9"/>
						<stop  offset="1" style="stop-color:#121921"/>
					</linearGradient>
					<polygon class="st9" points="73.8,100.9 54.9,108.5 50.7,93.8 71.8,93.9 					"/>
					
						<linearGradient id="SVGID_8_" gradientUnits="userSpaceOnUse" x1="1260.645" y1="1238.1108" x2="1261.7729" y2="1245.1288" gradientTransform="matrix(0.9608 -0.2773 0.2773 0.9608 -1488.2728 -736.0106)">
						<stop  offset="0" style="stop-color:#40F4C9"/>
						<stop  offset="1" style="stop-color:#121921"/>
					</linearGradient>
					<polygon class="st10" points="65.5,111.1 78.8,102.1 73.8,100.9 54.9,108.5 					"/>
					
						<linearGradient id="SVGID_9_" gradientUnits="userSpaceOnUse" x1="1264.5706" y1="1216.2678" x2="1273.7155" y2="1208.3085" gradientTransform="matrix(0.9608 -0.2773 0.2773 0.9608 -1488.2728 -736.0106)">
						<stop  offset="0" style="stop-color:#40F4C9"/>
						<stop  offset="1" style="stop-color:#121921"/>
					</linearGradient>
					<polygon class="st11" points="55.2,75.5 73.9,85.2 76.4,82.6 60.5,70 					"/>
				</g>
				<g>
					
						<linearGradient id="SVGID_10_" gradientUnits="userSpaceOnUse" x1="1275.2792" y1="1208.8096" x2="1282.724" y2="1205.5231" gradientTransform="matrix(0.9608 -0.2773 0.2773 0.9608 -1488.2728 -736.0106)">
						<stop  offset="0" style="stop-color:#40F4C9"/>
						<stop  offset="1" style="stop-color:#121921"/>
					</linearGradient>
					<polygon class="st12" points="64.8,65.6 80.7,78.2 83.2,75.6 70.1,60 					"/>
					
						<linearGradient id="SVGID_11_" gradientUnits="userSpaceOnUse" x1="1268.39" y1="1200.5612" x2="1279.8215" y2="1215.7732" gradientTransform="matrix(0.9608 -0.2773 0.2773 0.9608 -1488.2728 -736.0106)">
						<stop  offset="0" style="stop-color:#40F4C9"/>
						<stop  offset="1" style="stop-color:#121921"/>
					</linearGradient>
					<polygon class="st13" points="65,67.8 80.9,80.4 80.7,78.2 64.8,65.6 					"/>
					
						<linearGradient id="SVGID_12_" gradientUnits="userSpaceOnUse" x1="1287.3807" y1="1204.9045" x2="1279.9293" y2="1209.223" gradientTransform="matrix(0.9608 -0.2773 0.2773 0.9608 -1488.2728 -736.0106)">
						<stop  offset="0" style="stop-color:#40F4C9"/>
						<stop  offset="1" style="stop-color:#121921"/>
					</linearGradient>
					<polygon class="st14" points="70.1,60 83.2,75.6 88.2,76.8 80.6,62.6 					"/>
				</g>
			</g>
			<g>
				<path class="st2" d="M64.4,109.2c0.1,0,6.3-3.4,6.3-3.4l1.7,0.7c0.1-0.3-1.7-1-1.7-1c-0.1,0-6.4,3.4-6.4,3.4l-3.7-0.9l10.6-4.6
					l-2.1-0.7l-0.6-2.2c-0.2,0.1-7.4,2.7-7.4,2.7l-0.7-2.3l3.6-1.4l-0.7-2.5l-9.2,0.6l-1.1-3.9l0.8-3l2.2,0.2l1-3.5l9.9,1.2l0.8-2.5
					l-3.9-1.4l1.2-4.2l2.1-1.8l-3.3-2l2.4-2.3c-0.2-0.2-2.9,2.4-2.9,2.4l3.3,2l-1.9,1.6c0,0-1.3,4.5-1.3,4.5c0.1,0,3.9,1.4,3.9,1.4
					l-0.6,2l-9.9-1.2c0,0.1-1,3.5-1,3.5l-2.2-0.2l-0.9,3.3L54,98l9.2-0.6l0.6,2l-3.6,1.4l0.8,2.8c0.2-0.1,7.4-2.7,7.4-2.7l0.6,2
					l1.5,0.5l-10.7,4.7L64.4,109.2z"/>
			</g>
			<g>
				<path class="st2" d="M83.8,72L81,67l1,0.2L80.7,65l1.2,0.3c0.1-0.3-1.8-0.7-1.8-0.7l1.3,2.3l-1-0.2l2.8,5l-1.4-0.2l-1.5-2.3
					l-3.1-0.7c-0.1,0.1-1.4,1.4-1.4,1.4l-2.3-2.4l-2.8,3c0.2,0.2,2.8-2.5,2.8-2.5l2.3,2.4c0.1-0.1,1.5-1.5,1.5-1.5l2.8,0.7l1.5,2.4
					C81.7,71.8,83.8,72,83.8,72z"/>
			</g>
		</g>
		<g>
			
				<linearGradient id="SVGID_13_" gradientUnits="userSpaceOnUse" x1="-6949.6089" y1="1215.0125" x2="-6949.5947" y2="1215.0366" gradientTransform="matrix(-0.9608 0.2773 0.2773 0.9608 -6920.1172 831.5307)">
				<stop  offset="0" style="stop-color:#E8FFE0"/>
				<stop  offset="1" style="stop-color:#2FB196"/>
			</linearGradient>
			<path class="st15" d="M93.6,71.9c0.2,0,0.4,0.1,0.6,0.1C94,72,93.8,72,93.6,71.9z"/>
			
				<linearGradient id="SVGID_14_" gradientUnits="userSpaceOnUse" x1="-6941.7954" y1="1210.5334" x2="-6921.1157" y2="1246.351" gradientTransform="matrix(-0.9608 0.2773 0.2773 0.9608 -6920.1172 831.5307)">
				<stop  offset="0" style="stop-color:#E8FFE0"/>
				<stop  offset="1" style="stop-color:#2FB196"/>
			</linearGradient>
			<path class="st16" d="M80.5,74.4c3.4-2.3,8-3.4,13.1-2.4c-2.8-0.4-5.9,0.8-8.9,3.8c-6.5,6.6-9.8,19.3-7.3,28.3
				c1.3,4.6,3.8,7.4,6.8,8.1c-5.3-1.5-9.5-4.9-11.8-10.1C68.2,92.6,71.4,80.4,80.5,74.4z"/>
		</g>
		
			<linearGradient id="SVGID_15_" gradientUnits="userSpaceOnUse" x1="-6961.6216" y1="1218.2622" x2="-6937.6357" y2="1259.8069" gradientTransform="matrix(-0.9608 0.2773 0.2773 0.9608 -6920.1172 831.5307)">
			<stop  offset="0" style="stop-color:#40F4C9"/>
			<stop  offset="1" style="stop-color:#121921"/>
		</linearGradient>
		<path class="st17" d="M77.3,104.1c-2.5-9.1,0.8-21.7,7.3-28.3c3-3,6.1-4.2,8.9-3.8c11.9,1.9,23.9,3.7,35.8,5.6
			c-3.2-0.5-6.9,0.9-10.3,4.4c-7.6,7.6-11.4,22.4-8.5,32.9c1.4,5,4,8.1,7.2,9.2c-11.4-4-22.8-8-34.2-12
			C80.8,111.1,78.5,108.4,77.3,104.1L77.3,104.1z"/>
		
			<linearGradient id="SVGID_16_" gradientUnits="userSpaceOnUse" x1="1318.1187" y1="1220.9103" x2="1319.4515" y2="1252.5647" gradientTransform="matrix(0.9608 -0.2773 0.2773 0.9608 -1488.2728 -736.0106)">
			<stop  offset="0" style="stop-color:#E8FFE0"/>
			<stop  offset="1" style="stop-color:#2FB196"/>
		</linearGradient>
		<path class="st18" d="M119.1,81.9c3.7-3.8,7.7-5.1,11.1-4.3c4.4,1.2,8,3.5,11,7.8c7.7,11.1,2.9,29.1-6.8,35.7
			c-4.4,3-8.8,4.7-15.8,3.2c-3.5-0.9-6.4-4.1-7.9-9.5C107.7,104.3,111.5,89.5,119.1,81.9z"/>
		<g>
			<path class="st4" d="M131.6,109c1,3.8,4.1,4.6,6.8,1.9c2.7-2.7,4.1-8,3-11.8c-1-3.8-4.1-4.6-6.8-1.9
				C131.9,99.9,130.5,105.2,131.6,109z"/>
		</g>
		<g class="st19">
			<path class="st4" d="M129.6,112.6c1.2,4.3,4.6,5.2,7.7,2.1c3.1-3.1,4.6-9.1,3.5-13.4c-1.2-4.3-4.6-5.2-7.7-2.1
				C130,102.4,128.5,108.4,129.6,112.6z"/>
		</g>
		<g>
			
				<linearGradient id="SVGID_17_" gradientUnits="userSpaceOnUse" x1="-6986.4048" y1="1250.9495" x2="-6978.4043" y2="1264.8071" gradientTransform="matrix(-0.9608 0.2773 0.2773 0.9608 -6920.1172 831.5307)">
				<stop  offset="0" style="stop-color:#2FB196"/>
				<stop  offset="1" style="stop-color:#121921"/>
			</linearGradient>
			<path class="st20" d="M135.2,97.8c1.3-1.3,2.6-1.8,3.8-1.5l5,1.3c-1.2-0.3-2.5,0.2-3.8,1.5c-2.5,2.6-3.7,7.5-2.7,11
				c0.5,1.7,1.5,2.7,2.6,3l-5-1.3c-1.1-0.3-2.1-1.3-2.6-3C131.5,105.3,132.7,100.4,135.2,97.8z"/>
			<path class="st21" d="M140.2,99c-2.5,2.6-3.7,7.5-2.7,11c1,3.5,3.9,4.1,6.4,1.5c2.5-2.6,3.7-7.5,2.7-11
				C145.6,97.1,142.7,96.4,140.2,99z"/>
			<path class="st4" d="M142.8,110.5c2.1-2.2,3.2-6.6,2.4-9.5c-0.7-2.3-2.1-2.7-3.8-0.9c-2.1,2.2-3.2,6.6-2.4,9.5
				C139.6,111.9,141.1,112.2,142.8,110.5z"/>
			
				<linearGradient id="SVGID_18_" gradientUnits="userSpaceOnUse" x1="-6990.7163" y1="1255.2183" x2="-6984.2495" y2="1266.4187" gradientTransform="matrix(-0.9608 0.2773 0.2773 0.9608 -6920.1172 831.5307)">
				<stop  offset="0" style="stop-color:#2FB196"/>
				<stop  offset="1" style="stop-color:#121921"/>
			</linearGradient>
			<path class="st22" d="M139.5,110.8c0.8,1.2,2,1.1,3.3-0.3c2.1-2.2,3.2-6.6,2.4-9.5c-0.5-1.8-1.5-2.4-2.8-1.8
				c0.2,0.3,0.4,0.7,0.5,1.2c0.9,2.9-0.2,7.3-2.4,9.5C140.2,110.3,139.8,110.6,139.5,110.8z"/>
		</g>
		<g>
			<path class="st2" d="M83,77.7c0.1-0.1,0.2-0.3,0.3-0.4l6.3,1.2c-0.1,0.1-0.1,0.1-0.2,0.2c-3.2,4.4,0.9,8.5,5.8,7.6
				c1.5-0.3,4.6-1.3,7.8-5.1c0.1-0.1,0.1-0.1,0.2-0.2l14.4,2.7c-0.1,0.2-0.3,0.3-0.4,0.5l-13.8-2.6c-8,9.1-15.5,5.1-15.6,0.3
				c0-1.5,0.6-2.5,1-3.1L83,77.7L83,77.7z"/>
			<path class="st2" d="M85.7,74.8c0.1-0.1,0.2-0.2,0.4-0.3l5.8,1c4.4-3,17.1-1.6,16.3,0.7c-0.2,0.6-1,1.4-1.5,1.8l14,2.4
				c-0.1,0.1-0.3,0.2-0.4,0.3l-14.5-2.5c2-1.7,4.1-3.5-4.1-4.2c-6.4-0.5-8.6,1-9.5,1.7C92,75.9,85.7,74.8,85.7,74.8L85.7,74.8z"/>
			<path class="st5" d="M105.8,114c1.2,4.3,3.6,7.1,6.3,8l-0.5-0.2c-2.8-1-5-3.7-6.2-8c-0.4-1.4-0.6-2.9-0.7-3.6
				c0-0.3-0.2-0.5-0.5-0.6l-22.1-7.3c-0.2-0.1-0.3,0.1-0.3,0.3c0.1,1.1,0.3,2.1,0.6,3.2c1.2,4.3,3.5,7,6.2,8l-0.5-0.2
				c-2.8-1-5-3.7-6.2-8c-0.3-1-0.5-2-0.6-3.1c-0.1-0.4,0.4-0.8,0.8-0.7l22.4,7.3c0.3,0.1,0.6,0.4,0.6,0.8
				C105.2,110.8,105.4,112.6,105.8,114z"/>
		</g>
		<g>
			<path class="st23" d="M101.2,81.3c0.3-0.3,0.6-0.6,0.9-0.9c1-1.2,1.3-2.5,0.9-3.7c-0.4-1.1-1.5-1.9-3.1-2.2
				c-2.4-0.4-5.5,0.5-7.5,2.3c-0.3,0.3-0.6,0.6-0.9,0.9c-1,1.2-1.3,2.5-0.9,3.7c0.4,1.1,1.5,1.9,3.1,2.2
				C96.1,83.9,99.2,83,101.2,81.3L101.2,81.3z"/>
			
				<linearGradient id="SVGID_19_" gradientUnits="userSpaceOnUse" x1="1298.4547" y1="1220.0924" x2="1298.3185" y2="1226.6772" gradientTransform="matrix(0.9608 -0.2773 0.2773 0.9608 -1488.2728 -736.0106)">
				<stop  offset="0" style="stop-color:#2FB196"/>
				<stop  offset="1" style="stop-color:#121921"/>
			</linearGradient>
			<path class="st24" d="M92,80.5l-0.6-1.8l0.6-0.2c0.2-0.5,0.5-1.1,0.9-1.6c0.3-0.3,0.5-0.6,0.9-0.9c2-1.7,5.1-2.7,7.5-2.3
				c0.8,0.1,1.4,0.4,1.9,0.7l0.6-0.2l0.6,1.8c0.4,1.1,0,2.4-0.9,3.5c-0.3,0.3-0.5,0.6-0.9,0.9c-2,1.7-5.1,2.7-7.5,2.3
				C93.5,82.4,92.4,81.7,92,80.5z"/>
			<path class="st21" d="M102,78.7c0.3-0.3,0.6-0.6,0.9-0.9c1-1.2,1.3-2.5,0.9-3.7c-0.4-1.1-1.5-1.9-3.1-2.2
				c-2.4-0.4-5.5,0.5-7.5,2.3c-0.3,0.3-0.6,0.6-0.9,0.9c-1,1.2-1.3,2.5-0.9,3.7c0.4,1.1,1.5,1.9,3.1,2.2
				C96.9,81.4,100,80.5,102,78.7L102,78.7z"/>
			
				<radialGradient id="SVGID_20_" cx="-5154.5645" cy="5335.2969" r="7.4775" gradientTransform="matrix(-0.7587 0.6515 0.6515 0.7587 -7288.2915 -610.6351)" gradientUnits="userSpaceOnUse">
				<stop  offset="0" style="stop-color:#40F4C9"/>
				<stop  offset="1" style="stop-color:#2FB196"/>
			</radialGradient>
			<path class="st25" d="M93,75.7c1.6-2,5-3.3,7.6-2.8c2.5,0.4,3.3,2.4,1.6,4.4c-1.6,2-5,3.3-7.6,2.8C92.1,79.7,91.3,77.7,93,75.7z"
				/>
			
				<linearGradient id="SVGID_21_" gradientUnits="userSpaceOnUse" x1="-5161.0068" y1="5332.3564" x2="-5150.0879" y2="5332.3564" gradientTransform="matrix(-0.7587 0.6515 0.6515 0.7587 -7288.2915 -610.6351)">
				<stop  offset="0" style="stop-color:#2FB196"/>
				<stop  offset="1" style="stop-color:#121921"/>
			</linearGradient>
			<path class="st26" d="M92.4,78.8c0.1-0.5,0.4-1.1,0.8-1.7c1.6-2,5-3.3,7.6-2.8c1.1,0.2,1.9,0.7,2.3,1.3c0.2-1.3-0.7-2.3-2.5-2.6
				c-2.5-0.4-5.9,0.8-7.6,2.8C92.1,76.8,91.9,77.9,92.4,78.8z"/>
		</g>
		<g>
			<g>
				
					<linearGradient id="SVGID_22_" gradientUnits="userSpaceOnUse" x1="-6934.0547" y1="1262.8739" x2="-6932.8604" y2="1264.9424" gradientTransform="matrix(-0.9608 0.2773 0.2773 0.9608 -6920.1172 831.5307)">
					<stop  offset="0" style="stop-color:#CF6E6E"/>
					<stop  offset="1" style="stop-color:#475B6F"/>
				</linearGradient>
				<polygon class="st27" points="92.8,122.4 90.3,121.8 91.1,124.5 93.6,125.1 				"/>
				<polygon class="st5" points="101.8,113.1 99.3,112.4 90.3,121.8 92.8,122.4 				"/>
				
					<linearGradient id="SVGID_23_" gradientUnits="userSpaceOnUse" x1="1293.8734" y1="1255.6239" x2="1279.5857" y2="1266.9248" gradientTransform="matrix(0.9608 -0.2773 0.2773 0.9608 -1488.2728 -736.0106)">
					<stop  offset="0" style="stop-color:#2FB196"/>
					<stop  offset="1" style="stop-color:#121921"/>
				</linearGradient>
				<polygon class="st28" points="93.6,125.1 102.6,115.7 101.8,113.1 92.8,122.4 				"/>
			</g>
			<g>
				
					<linearGradient id="SVGID_24_" gradientUnits="userSpaceOnUse" x1="1287.1804" y1="1247.162" x2="1272.8927" y2="1258.463" gradientTransform="matrix(0.9608 -0.2773 0.2773 0.9608 -1488.2728 -736.0106)">
					<stop  offset="0" style="stop-color:#2FB196"/>
					<stop  offset="1" style="stop-color:#121921"/>
				</linearGradient>
				<polygon class="st29" points="82.3,122.3 91.3,112.9 90.6,110.3 81.5,119.6 				"/>
				
					<linearGradient id="SVGID_25_" gradientUnits="userSpaceOnUse" x1="-6924.002" y1="1257.0699" x2="-6922.8076" y2="1259.1385" gradientTransform="matrix(-0.9608 0.2773 0.2773 0.9608 -6920.1172 831.5307)">
					<stop  offset="0" style="stop-color:#CF6E6E"/>
					<stop  offset="1" style="stop-color:#475B6F"/>
				</linearGradient>
				<polygon class="st30" points="81.5,119.6 79,119 79.8,121.7 82.3,122.3 				"/>
				<polygon class="st5" points="90.6,110.3 88.1,109.7 79,119 81.5,119.6 				"/>
			</g>
			<g>
				<polygon class="st2" points="37.3,194.5 0,185.2 73.2,117 98.3,123.3 				"/>
				
					<linearGradient id="SVGID_26_" gradientUnits="userSpaceOnUse" x1="1207.8082" y1="1293.2286" x2="1286.113" y2="1293.2286" gradientTransform="matrix(0.9608 -0.2773 0.2773 0.9608 -1488.2728 -736.0106)">
					<stop  offset="0" style="stop-color:#2FB196"/>
					<stop  offset="1" style="stop-color:#121921"/>
				</linearGradient>
				<polygon class="st31" points="37.3,194.5 98.3,123.3 99.4,127.1 38.4,198.3 				"/>
				
					<linearGradient id="SVGID_27_" gradientUnits="userSpaceOnUse" x1="-6849.1675" y1="1304.8622" x2="-6840.1431" y2="1313.8866" gradientTransform="matrix(-0.9608 0.2773 0.2773 0.9608 -6920.1172 831.5307)">
					<stop  offset="0" style="stop-color:#2FB196"/>
					<stop  offset="1" style="stop-color:#121921"/>
				</linearGradient>
				<polygon class="st32" points="38.4,198.3 1.1,189 0,185.2 37.3,194.5 				"/>
				<g>
					<polygon class="st4" points="54.1,170.7 42,167.7 33.5,176.4 46.5,179.6 					"/>
					<polygon class="st4" points="30.4,175.6 38.8,166.9 26.6,163.9 17.5,172.4 					"/>
					<polygon class="st4" points="41,164.6 49.5,155.8 38.3,153.1 29.1,161.6 					"/>
					<polygon class="st4" points="61.5,131.4 52.4,139.9 62.4,142.4 70.8,133.7 					"/>
					<polygon class="st4" points="76.2,132.1 85.2,134.3 93.4,124.8 85.2,122.7 					"/>
					<polygon class="st4" points="51.7,153.5 60.1,144.8 49.9,142.2 40.7,150.8 					"/>
					<polygon class="st4" points="74,134.5 65.5,143.2 75.6,145.7 83.2,136.7 					"/>
					<polygon class="st4" points="52.6,156.6 44.2,165.3 56.2,168.3 63.8,159.4 					"/>
					<polygon class="st4" points="31.3,178.8 22.4,188.1 36.3,191.5 44.4,182 					"/>
					<polygon class="st4" points="28.1,178 15,174.7 5.2,183.8 19.2,187.3 					"/>
					<polygon class="st4" points="73,131.3 82.1,121.9 73.9,119.9 64,129.1 					"/>
					<polygon class="st4" points="63.3,145.5 54.9,154.3 65.9,157 73.5,148.1 					"/>
				</g>
			</g>
		</g>
	</g>
</g>
<g id="circle-down">
</g>
<g id="circle-up-left">
</g>
</svg>
